<?xml version="1.0" encoding="UTF-8" standalone="no"?>
<!DOCTYPE svg PUBLIC "-//W3C//DTD SVG 1.1//EN"
 "http://www.w3.org/Graphics/SVG/1.1/DTD/svg11.dtd">
<!-- Generated by graphviz version 2.42.4 (0)
 -->
<!-- Title: AST Pages: 1 -->
<svg width="297pt" height="260pt"
 viewBox="0.00 0.00 296.50 260.00" xmlns="http://www.w3.org/2000/svg" xmlns:xlink="http://www.w3.org/1999/xlink">
<g id="graph0" class="graph" transform="scale(1 1) rotate(0) translate(4 256)">
<title>AST</title>
<polygon fill="white" stroke="transparent" points="-4,4 -4,-256 292.5,-256 292.5,4 -4,4"/>
<!-- Program -->
<g id="node1" class="node">
<title>Program</title>
<polygon fill="none" stroke="black" points="166,-252 101,-252 101,-216 166,-216 166,-252"/>
<text text-anchor="middle" x="133.5" y="-230.3" font-family="Times,serif" font-size="14.00">Program</text>
</g>
<!-- 0x5b8a293b8dd0 -->
<g id="node2" class="node">
<title>0x5b8a293b8dd0</title>
<polygon fill="lightblue" stroke="black" points="75,-180 0,-180 0,-144 75,-144 75,-180"/>
<text text-anchor="middle" x="37.5" y="-158.3" font-family="Times,serif" font-size="14.00">Assign: fst</text>
</g>
<!-- Program&#45;&gt;0x5b8a293b8dd0 -->
<g id="edge2" class="edge">
<title>Program&#45;&gt;0x5b8a293b8dd0</title>
<path fill="none" stroke="black" d="M109.77,-215.7C97.56,-206.8 82.51,-195.82 69.32,-186.2"/>
<polygon fill="black" stroke="black" points="71.1,-183.17 60.96,-180.1 66.98,-188.82 71.1,-183.17"/>
</g>
<!-- 0x5b8a293b8e50 -->
<g id="node4" class="node">
<title>0x5b8a293b8e50</title>
<polygon fill="lightblue" stroke="black" points="173.5,-180 93.5,-180 93.5,-144 173.5,-144 173.5,-180"/>
<text text-anchor="middle" x="133.5" y="-158.3" font-family="Times,serif" font-size="14.00">Assign: snd</text>
</g>
<!-- Program&#45;&gt;0x5b8a293b8e50 -->
<g id="edge4" class="edge">
<title>Program&#45;&gt;0x5b8a293b8e50</title>
<path fill="none" stroke="black" d="M133.5,-215.7C133.5,-207.98 133.5,-198.71 133.5,-190.11"/>
<polygon fill="black" stroke="black" points="137,-190.1 133.5,-180.1 130,-190.1 137,-190.1"/>
</g>
<!-- 0x5b8a293b8e10 -->
<g id="node6" class="node">
<title>0x5b8a293b8e10</title>
<polygon fill="none" stroke="black" points="245.5,-180 191.5,-180 191.5,-144 245.5,-144 245.5,-180"/>
<text text-anchor="middle" x="218.5" y="-158.3" font-family="Times,serif" font-size="14.00">Print</text>
</g>
<!-- Program&#45;&gt;0x5b8a293b8e10 -->
<g id="edge8" class="edge">
<title>Program&#45;&gt;0x5b8a293b8e10</title>
<path fill="none" stroke="black" d="M154.51,-215.7C165.22,-206.88 178.39,-196.03 190,-186.47"/>
<polygon fill="black" stroke="black" points="192.24,-189.16 197.73,-180.1 187.79,-183.76 192.24,-189.16"/>
</g>
<!-- 0x5b8a293b8db0 -->
<g id="node3" class="node">
<title>0x5b8a293b8db0</title>
<polygon fill="none" stroke="black" points="73.5,-108 1.5,-108 1.5,-72 73.5,-72 73.5,-108"/>
<text text-anchor="middle" x="37.5" y="-86.3" font-family="Times,serif" font-size="14.00">Num: 131</text>
</g>
<!-- 0x5b8a293b8dd0&#45;&gt;0x5b8a293b8db0 -->
<g id="edge1" class="edge">
<title>0x5b8a293b8dd0&#45;&gt;0x5b8a293b8db0</title>
<path fill="none" stroke="black" d="M37.5,-143.7C37.5,-135.98 37.5,-126.71 37.5,-118.11"/>
<polygon fill="black" stroke="black" points="41,-118.1 37.5,-108.1 34,-118.1 41,-118.1"/>
</g>
<!-- 0x5b8a293b8e30 -->
<g id="node5" class="node">
<title>0x5b8a293b8e30</title>
<polygon fill="none" stroke="black" points="163,-108 104,-108 104,-72 163,-72 163,-108"/>
<text text-anchor="middle" x="133.5" y="-86.3" font-family="Times,serif" font-size="14.00">Num: 1</text>
</g>
<!-- 0x5b8a293b8e50&#45;&gt;0x5b8a293b8e30 -->
<g id="edge3" class="edge">
<title>0x5b8a293b8e50&#45;&gt;0x5b8a293b8e30</title>
<path fill="none" stroke="black" d="M133.5,-143.7C133.5,-135.98 133.5,-126.71 133.5,-118.11"/>
<polygon fill="black" stroke="black" points="137,-118.1 133.5,-108.1 130,-118.1 137,-118.1"/>
</g>
<!-- 0x5b8a293b3ac0 -->
<g id="node7" class="node">
<title>0x5b8a293b3ac0</title>
<polygon fill="lightyellow" stroke="black" points="245.5,-108 191.5,-108 191.5,-72 245.5,-72 245.5,-108"/>
<text text-anchor="middle" x="218.5" y="-86.3" font-family="Times,serif" font-size="14.00">+</text>
</g>
<!-- 0x5b8a293b8e10&#45;&gt;0x5b8a293b3ac0 -->
<g id="edge7" class="edge">
<title>0x5b8a293b8e10&#45;&gt;0x5b8a293b3ac0</title>
<path fill="none" stroke="black" d="M218.5,-143.7C218.5,-135.98 218.5,-126.71 218.5,-118.11"/>
<polygon fill="black" stroke="black" points="222,-118.1 218.5,-108.1 215,-118.1 222,-118.1"/>
</g>
<!-- 0x5b8a293b8eb0 -->
<g id="node8" class="node">
<title>0x5b8a293b8eb0</title>
<polygon fill="none" stroke="black" points="208,-36 151,-36 151,0 208,0 208,-36"/>
<text text-anchor="middle" x="179.5" y="-14.3" font-family="Times,serif" font-size="14.00">Var: fst</text>
</g>
<!-- 0x5b8a293b3ac0&#45;&gt;0x5b8a293b8eb0 -->
<g id="edge5" class="edge">
<title>0x5b8a293b3ac0&#45;&gt;0x5b8a293b8eb0</title>
<path fill="none" stroke="black" d="M208.86,-71.7C204.37,-63.64 198.94,-53.89 193.98,-44.98"/>
<polygon fill="black" stroke="black" points="196.95,-43.14 189.03,-36.1 190.84,-46.54 196.95,-43.14"/>
</g>
<!-- 0x5b8a293b8ee0 -->
<g id="node9" class="node">
<title>0x5b8a293b8ee0</title>
<polygon fill="none" stroke="black" points="288.5,-36 226.5,-36 226.5,0 288.5,0 288.5,-36"/>
<text text-anchor="middle" x="257.5" y="-14.3" font-family="Times,serif" font-size="14.00">Var: snd</text>
</g>
<!-- 0x5b8a293b3ac0&#45;&gt;0x5b8a293b8ee0 -->
<g id="edge6" class="edge">
<title>0x5b8a293b3ac0&#45;&gt;0x5b8a293b8ee0</title>
<path fill="none" stroke="black" d="M228.14,-71.7C232.63,-63.64 238.06,-53.89 243.02,-44.98"/>
<polygon fill="black" stroke="black" points="246.16,-46.54 247.97,-36.1 240.05,-43.14 246.16,-46.54"/>
</g>
</g>
</svg>
