<?xml version="1.0" encoding="UTF-8" standalone="no"?>
<!DOCTYPE svg PUBLIC "-//W3C//DTD SVG 1.1//EN"
 "http://www.w3.org/Graphics/SVG/1.1/DTD/svg11.dtd">
<!-- Generated by graphviz version 2.42.4 (0)
 -->
<!-- Title: AST Pages: 1 -->
<svg width="268pt" height="476pt"
 viewBox="0.00 0.00 268.00 476.00" xmlns="http://www.w3.org/2000/svg" xmlns:xlink="http://www.w3.org/1999/xlink">
<g id="graph0" class="graph" transform="scale(1 1) rotate(0) translate(4 472)">
<title>AST</title>
<polygon fill="white" stroke="transparent" points="-4,4 -4,-472 264,-472 264,4 -4,4"/>
<!-- Program -->
<g id="node1" class="node">
<title>Program</title>
<polygon fill="none" stroke="black" points="148,-468 83,-468 83,-432 148,-432 148,-468"/>
<text text-anchor="middle" x="115.5" y="-446.3" font-family="Times,serif" font-size="14.00">Program</text>
</g>
<!-- 0x56af83833dd0 -->
<g id="node2" class="node">
<title>0x56af83833dd0</title>
<polygon fill="lightblue" stroke="black" points="65,-396 0,-396 0,-360 65,-360 65,-396"/>
<text text-anchor="middle" x="32.5" y="-374.3" font-family="Times,serif" font-size="14.00">Assign: j</text>
</g>
<!-- Program&#45;&gt;0x56af83833dd0 -->
<g id="edge2" class="edge">
<title>Program&#45;&gt;0x56af83833dd0</title>
<path fill="none" stroke="black" d="M94.98,-431.7C84.63,-422.97 71.91,-412.24 60.66,-402.75"/>
<polygon fill="black" stroke="black" points="62.68,-399.88 52.78,-396.1 58.17,-405.23 62.68,-399.88"/>
</g>
<!-- 0x56af83833e50 -->
<g id="node4" class="node">
<title>0x56af83833e50</title>
<polygon fill="lightblue" stroke="black" points="148,-396 83,-396 83,-360 148,-360 148,-396"/>
<text text-anchor="middle" x="115.5" y="-374.3" font-family="Times,serif" font-size="14.00">Assign: i</text>
</g>
<!-- Program&#45;&gt;0x56af83833e50 -->
<g id="edge4" class="edge">
<title>Program&#45;&gt;0x56af83833e50</title>
<path fill="none" stroke="black" d="M115.5,-431.7C115.5,-423.98 115.5,-414.71 115.5,-406.11"/>
<polygon fill="black" stroke="black" points="119,-406.1 115.5,-396.1 112,-406.1 119,-406.1"/>
</g>
<!-- 0x56af83833fe0 -->
<g id="node6" class="node">
<title>0x56af83833fe0</title>
<polygon fill="none" stroke="black" points="220.5,-396 166.5,-396 166.5,-360 220.5,-360 220.5,-396"/>
<text text-anchor="middle" x="193.5" y="-374.3" font-family="Times,serif" font-size="14.00">Print</text>
</g>
<!-- Program&#45;&gt;0x56af83833fe0 -->
<g id="edge14" class="edge">
<title>Program&#45;&gt;0x56af83833fe0</title>
<path fill="none" stroke="black" d="M134.78,-431.7C144.42,-423.05 156.23,-412.45 166.73,-403.03"/>
<polygon fill="black" stroke="black" points="169.34,-405.39 174.44,-396.1 164.66,-400.18 169.34,-405.39"/>
</g>
<!-- 0x56af83833db0 -->
<g id="node3" class="node">
<title>0x56af83833db0</title>
<polygon fill="none" stroke="black" points="62,-324 3,-324 3,-288 62,-288 62,-324"/>
<text text-anchor="middle" x="32.5" y="-302.3" font-family="Times,serif" font-size="14.00">Num: 5</text>
</g>
<!-- 0x56af83833dd0&#45;&gt;0x56af83833db0 -->
<g id="edge1" class="edge">
<title>0x56af83833dd0&#45;&gt;0x56af83833db0</title>
<path fill="none" stroke="black" d="M32.5,-359.7C32.5,-351.98 32.5,-342.71 32.5,-334.11"/>
<polygon fill="black" stroke="black" points="36,-334.1 32.5,-324.1 29,-334.1 36,-334.1"/>
</g>
<!-- 0x56af83833e30 -->
<g id="node5" class="node">
<title>0x56af83833e30</title>
<polygon fill="none" stroke="black" points="148,-324 83,-324 83,-288 148,-288 148,-324"/>
<text text-anchor="middle" x="115.5" y="-302.3" font-family="Times,serif" font-size="14.00">Num: 12</text>
</g>
<!-- 0x56af83833e50&#45;&gt;0x56af83833e30 -->
<g id="edge3" class="edge">
<title>0x56af83833e50&#45;&gt;0x56af83833e30</title>
<path fill="none" stroke="black" d="M115.5,-359.7C115.5,-351.98 115.5,-342.71 115.5,-334.11"/>
<polygon fill="black" stroke="black" points="119,-334.1 115.5,-324.1 112,-334.1 119,-334.1"/>
</g>
<!-- 0x56af83833fb0 -->
<g id="node7" class="node">
<title>0x56af83833fb0</title>
<polygon fill="lightyellow" stroke="black" points="220.5,-324 166.5,-324 166.5,-288 220.5,-288 220.5,-324"/>
<text text-anchor="middle" x="193.5" y="-302.3" font-family="Times,serif" font-size="14.00">/</text>
</g>
<!-- 0x56af83833fe0&#45;&gt;0x56af83833fb0 -->
<g id="edge13" class="edge">
<title>0x56af83833fe0&#45;&gt;0x56af83833fb0</title>
<path fill="none" stroke="black" d="M193.5,-359.7C193.5,-351.98 193.5,-342.71 193.5,-334.11"/>
<polygon fill="black" stroke="black" points="197,-334.1 193.5,-324.1 190,-334.1 197,-334.1"/>
</g>
<!-- 0x56af83833f30 -->
<g id="node8" class="node">
<title>0x56af83833f30</title>
<polygon fill="lightyellow" stroke="black" points="182.5,-252 128.5,-252 128.5,-216 182.5,-216 182.5,-252"/>
<text text-anchor="middle" x="155.5" y="-230.3" font-family="Times,serif" font-size="14.00">+</text>
</g>
<!-- 0x56af83833fb0&#45;&gt;0x56af83833f30 -->
<g id="edge11" class="edge">
<title>0x56af83833fb0&#45;&gt;0x56af83833f30</title>
<path fill="none" stroke="black" d="M184.11,-287.7C179.74,-279.64 174.44,-269.89 169.6,-260.98"/>
<polygon fill="black" stroke="black" points="172.63,-259.22 164.79,-252.1 166.48,-262.56 172.63,-259.22"/>
</g>
<!-- 0x56af83833f90 -->
<g id="node15" class="node">
<title>0x56af83833f90</title>
<polygon fill="none" stroke="black" points="260,-252 201,-252 201,-216 260,-216 260,-252"/>
<text text-anchor="middle" x="230.5" y="-230.3" font-family="Times,serif" font-size="14.00">Num: 2</text>
</g>
<!-- 0x56af83833fb0&#45;&gt;0x56af83833f90 -->
<g id="edge12" class="edge">
<title>0x56af83833fb0&#45;&gt;0x56af83833f90</title>
<path fill="none" stroke="black" d="M202.65,-287.7C206.9,-279.64 212.06,-269.89 216.77,-260.98"/>
<polygon fill="black" stroke="black" points="219.88,-262.58 221.46,-252.1 213.69,-259.31 219.88,-262.58"/>
</g>
<!-- 0x56af83833f00 -->
<g id="node9" class="node">
<title>0x56af83833f00</title>
<polygon fill="lightyellow" stroke="black" points="146.5,-180 92.5,-180 92.5,-144 146.5,-144 146.5,-180"/>
<text text-anchor="middle" x="119.5" y="-158.3" font-family="Times,serif" font-size="14.00">*</text>
</g>
<!-- 0x56af83833f30&#45;&gt;0x56af83833f00 -->
<g id="edge9" class="edge">
<title>0x56af83833f30&#45;&gt;0x56af83833f00</title>
<path fill="none" stroke="black" d="M146.6,-215.7C142.5,-207.73 137.55,-198.1 133.01,-189.26"/>
<polygon fill="black" stroke="black" points="135.98,-187.4 128.3,-180.1 129.76,-190.6 135.98,-187.4"/>
</g>
<!-- 0x56af83833f60 -->
<g id="node14" class="node">
<title>0x56af83833f60</title>
<polygon fill="none" stroke="black" points="218.5,-180 164.5,-180 164.5,-144 218.5,-144 218.5,-180"/>
<text text-anchor="middle" x="191.5" y="-158.3" font-family="Times,serif" font-size="14.00">Var: i</text>
</g>
<!-- 0x56af83833f30&#45;&gt;0x56af83833f60 -->
<g id="edge10" class="edge">
<title>0x56af83833f30&#45;&gt;0x56af83833f60</title>
<path fill="none" stroke="black" d="M164.4,-215.7C168.5,-207.73 173.45,-198.1 177.99,-189.26"/>
<polygon fill="black" stroke="black" points="181.24,-190.6 182.7,-180.1 175.02,-187.4 181.24,-190.6"/>
</g>
<!-- 0x56af8382eac0 -->
<g id="node10" class="node">
<title>0x56af8382eac0</title>
<polygon fill="lightyellow" stroke="black" points="107.5,-108 53.5,-108 53.5,-72 107.5,-72 107.5,-108"/>
<text text-anchor="middle" x="80.5" y="-86.3" font-family="Times,serif" font-size="14.00">+</text>
</g>
<!-- 0x56af83833f00&#45;&gt;0x56af8382eac0 -->
<g id="edge7" class="edge">
<title>0x56af83833f00&#45;&gt;0x56af8382eac0</title>
<path fill="none" stroke="black" d="M109.86,-143.7C105.37,-135.64 99.94,-125.89 94.98,-116.98"/>
<polygon fill="black" stroke="black" points="97.95,-115.14 90.03,-108.1 91.84,-118.54 97.95,-115.14"/>
</g>
<!-- 0x56af83833ee0 -->
<g id="node13" class="node">
<title>0x56af83833ee0</title>
<polygon fill="none" stroke="black" points="191,-108 126,-108 126,-72 191,-72 191,-108"/>
<text text-anchor="middle" x="158.5" y="-86.3" font-family="Times,serif" font-size="14.00">Num: 30</text>
</g>
<!-- 0x56af83833f00&#45;&gt;0x56af83833ee0 -->
<g id="edge8" class="edge">
<title>0x56af83833f00&#45;&gt;0x56af83833ee0</title>
<path fill="none" stroke="black" d="M129.14,-143.7C133.63,-135.64 139.06,-125.89 144.02,-116.98"/>
<polygon fill="black" stroke="black" points="147.16,-118.54 148.97,-108.1 141.05,-115.14 147.16,-118.54"/>
</g>
<!-- 0x56af83833eb0 -->
<g id="node11" class="node">
<title>0x56af83833eb0</title>
<polygon fill="none" stroke="black" points="68.5,-36 14.5,-36 14.5,0 68.5,0 68.5,-36"/>
<text text-anchor="middle" x="41.5" y="-14.3" font-family="Times,serif" font-size="14.00">Var: j</text>
</g>
<!-- 0x56af8382eac0&#45;&gt;0x56af83833eb0 -->
<g id="edge5" class="edge">
<title>0x56af8382eac0&#45;&gt;0x56af83833eb0</title>
<path fill="none" stroke="black" d="M70.86,-71.7C66.37,-63.64 60.94,-53.89 55.98,-44.98"/>
<polygon fill="black" stroke="black" points="58.95,-43.14 51.03,-36.1 52.84,-46.54 58.95,-43.14"/>
</g>
<!-- 0x56af83833e10 -->
<g id="node12" class="node">
<title>0x56af83833e10</title>
<polygon fill="none" stroke="black" points="152,-36 87,-36 87,0 152,0 152,-36"/>
<text text-anchor="middle" x="119.5" y="-14.3" font-family="Times,serif" font-size="14.00">Num: 10</text>
</g>
<!-- 0x56af8382eac0&#45;&gt;0x56af83833e10 -->
<g id="edge6" class="edge">
<title>0x56af8382eac0&#45;&gt;0x56af83833e10</title>
<path fill="none" stroke="black" d="M90.14,-71.7C94.63,-63.64 100.06,-53.89 105.02,-44.98"/>
<polygon fill="black" stroke="black" points="108.16,-46.54 109.97,-36.1 102.05,-43.14 108.16,-46.54"/>
</g>
</g>
</svg>
