<?xml version="1.0" encoding="UTF-8" standalone="no"?>
<!DOCTYPE svg PUBLIC "-//W3C//DTD SVG 1.1//EN"
 "http://www.w3.org/Graphics/SVG/1.1/DTD/svg11.dtd">
<!-- Generated by graphviz version 2.42.4 (0)
 -->
<!-- Title: AST Pages: 1 -->
<svg width="505pt" height="350pt"
 viewBox="0.00 0.00 505.00 350.00" xmlns="http://www.w3.org/2000/svg" xmlns:xlink="http://www.w3.org/1999/xlink">
<g id="graph0" class="graph" transform="scale(1 1) rotate(0) translate(4 346)">
<title>AST</title>
<polygon fill="white" stroke="transparent" points="-4,4 -4,-346 501,-346 501,4 -4,4"/>
<!-- Program -->
<g id="node1" class="node">
<title>Program</title>
<polygon fill="none" stroke="black" points="226.5,-342 161.5,-342 161.5,-306 226.5,-306 226.5,-342"/>
<text text-anchor="middle" x="194" y="-320.3" font-family="Times,serif" font-size="14.00">Program</text>
</g>
<!-- 0x55f9569342f0 -->
<g id="node2" class="node">
<title>0x55f9569342f0</title>
<polygon fill="lightblue" stroke="black" points="68,-269 0,-269 0,-233 68,-233 68,-269"/>
<text text-anchor="middle" x="34" y="-247.3" font-family="Times,serif" font-size="14.00">Assign: n</text>
</g>
<!-- Program&#45;&gt;0x55f9569342f0 -->
<g id="edge2" class="edge">
<title>Program&#45;&gt;0x55f9569342f0</title>
<path fill="none" stroke="black" d="M161.24,-308.46C137.05,-297.73 103.9,-283.02 77.49,-271.3"/>
<polygon fill="black" stroke="black" points="78.66,-267.99 68.1,-267.13 75.82,-274.39 78.66,-267.99"/>
</g>
<!-- 0x55f956934370 -->
<g id="node4" class="node">
<title>0x55f956934370</title>
<polygon fill="lightblue" stroke="black" points="205,-269 113,-269 113,-233 205,-233 205,-269"/>
<text text-anchor="middle" x="159" y="-247.3" font-family="Times,serif" font-size="14.00">Assign: result</text>
</g>
<!-- Program&#45;&gt;0x55f956934370 -->
<g id="edge4" class="edge">
<title>Program&#45;&gt;0x55f956934370</title>
<path fill="none" stroke="black" d="M185.53,-305.81C181.44,-297.53 176.46,-287.41 171.91,-278.19"/>
<polygon fill="black" stroke="black" points="174.96,-276.45 167.39,-269.03 168.68,-279.55 174.96,-276.45"/>
</g>
<!-- 0x55f956934520 -->
<g id="node6" class="node">
<title>0x55f956934520</title>
<polygon fill="none" stroke="black" points="290,-269 236,-269 236,-233 290,-233 290,-269"/>
<text text-anchor="middle" x="263" y="-247.3" font-family="Times,serif" font-size="14.00">While</text>
</g>
<!-- Program&#45;&gt;0x55f956934520 -->
<g id="edge16" class="edge">
<title>Program&#45;&gt;0x55f956934520</title>
<path fill="none" stroke="black" d="M210.7,-305.81C219.26,-297 229.84,-286.13 239.23,-276.46"/>
<polygon fill="black" stroke="black" points="241.99,-278.64 246.45,-269.03 236.97,-273.76 241.99,-278.64"/>
</g>
<!-- 0x55f9569343b0 -->
<g id="node18" class="node">
<title>0x55f9569343b0</title>
<polygon fill="none" stroke="black" points="438,-269 384,-269 384,-233 438,-233 438,-269"/>
<text text-anchor="middle" x="411" y="-247.3" font-family="Times,serif" font-size="14.00">Print</text>
</g>
<!-- Program&#45;&gt;0x55f9569343b0 -->
<g id="edge18" class="edge">
<title>Program&#45;&gt;0x55f9569343b0</title>
<path fill="none" stroke="black" d="M226.96,-312.22C266.61,-299.24 332.98,-277.53 374.25,-264.02"/>
<polygon fill="black" stroke="black" points="375.5,-267.3 383.92,-260.86 373.33,-260.64 375.5,-267.3"/>
</g>
<!-- 0x55f9569342d0 -->
<g id="node3" class="node">
<title>0x55f9569342d0</title>
<polygon fill="none" stroke="black" points="59.5,-182 0.5,-182 0.5,-146 59.5,-146 59.5,-182"/>
<text text-anchor="middle" x="30" y="-160.3" font-family="Times,serif" font-size="14.00">Num: 5</text>
</g>
<!-- 0x55f9569342f0&#45;&gt;0x55f9569342d0 -->
<g id="edge1" class="edge">
<title>0x55f9569342f0&#45;&gt;0x55f9569342d0</title>
<path fill="none" stroke="black" d="M33.19,-232.8C32.64,-221.16 31.91,-205.55 31.28,-192.24"/>
<polygon fill="black" stroke="black" points="34.77,-192 30.81,-182.18 27.78,-192.33 34.77,-192"/>
</g>
<!-- 0x55f956934350 -->
<g id="node5" class="node">
<title>0x55f956934350</title>
<polygon fill="none" stroke="black" points="136.5,-182 77.5,-182 77.5,-146 136.5,-146 136.5,-182"/>
<text text-anchor="middle" x="107" y="-160.3" font-family="Times,serif" font-size="14.00">Num: 1</text>
</g>
<!-- 0x55f956934370&#45;&gt;0x55f956934350 -->
<g id="edge3" class="edge">
<title>0x55f956934370&#45;&gt;0x55f956934350</title>
<path fill="none" stroke="black" d="M148.48,-232.8C141.15,-220.82 131.24,-204.62 122.94,-191.06"/>
<polygon fill="black" stroke="black" points="125.71,-188.88 117.51,-182.18 119.74,-192.53 125.71,-188.88"/>
</g>
<!-- 0x55f95692efe0 -->
<g id="node7" class="node">
<title>0x55f95692efe0</title>
<polygon fill="lightyellow" stroke="black" points="209,-182 155,-182 155,-146 209,-146 209,-182"/>
<text text-anchor="middle" x="182" y="-160.3" font-family="Times,serif" font-size="14.00">&gt;</text>
</g>
<!-- 0x55f956934520&#45;&gt;0x55f95692efe0 -->
<g id="edge7" class="edge">
<title>0x55f956934520&#45;&gt;0x55f95692efe0</title>
<path fill="none" stroke="black" d="M246.61,-232.8C234.75,-220.36 218.56,-203.36 205.35,-189.5"/>
<polygon fill="black" stroke="black" points="207.8,-187 198.37,-182.18 202.73,-191.83 207.8,-187"/>
<text text-anchor="middle" x="241.5" y="-203.8" font-family="Times,serif" font-size="14.00" fill="#7f7f7f">cond</text>
</g>
<!-- 0x55f9569344e0 -->
<g id="node10" class="node">
<title>0x55f9569344e0</title>
<polygon fill="lightblue" stroke="black" points="319,-182 227,-182 227,-146 319,-146 319,-182"/>
<text text-anchor="middle" x="273" y="-160.3" font-family="Times,serif" font-size="14.00">Assign: result</text>
</g>
<!-- 0x55f956934520&#45;&gt;0x55f9569344e0 -->
<g id="edge11" class="edge">
<title>0x55f956934520&#45;&gt;0x55f9569344e0</title>
<path fill="none" stroke="black" d="M265.02,-232.8C266.39,-221.16 268.23,-205.55 269.8,-192.24"/>
<polygon fill="black" stroke="black" points="273.29,-192.52 270.98,-182.18 266.33,-191.7 273.29,-192.52"/>
<text text-anchor="middle" x="283" y="-203.8" font-family="Times,serif" font-size="14.00" fill="#7f7f7f">body</text>
</g>
<!-- 0x55f9569345c0 -->
<g id="node14" class="node">
<title>0x55f9569345c0</title>
<polygon fill="lightblue" stroke="black" points="405,-182 337,-182 337,-146 405,-146 405,-182"/>
<text text-anchor="middle" x="371" y="-160.3" font-family="Times,serif" font-size="14.00">Assign: n</text>
</g>
<!-- 0x55f956934520&#45;&gt;0x55f9569345c0 -->
<g id="edge15" class="edge">
<title>0x55f956934520&#45;&gt;0x55f9569345c0</title>
<path fill="none" stroke="black" d="M284.86,-232.8C300.96,-220.13 323.06,-202.73 340.84,-188.74"/>
<polygon fill="black" stroke="black" points="343.48,-191.11 349.18,-182.18 339.15,-185.61 343.48,-191.11"/>
<text text-anchor="middle" x="338" y="-203.8" font-family="Times,serif" font-size="14.00" fill="#7f7f7f">body</text>
</g>
<!-- 0x55f9569343d0 -->
<g id="node8" class="node">
<title>0x55f9569343d0</title>
<polygon fill="none" stroke="black" points="142,-109 88,-109 88,-73 142,-73 142,-109"/>
<text text-anchor="middle" x="115" y="-87.3" font-family="Times,serif" font-size="14.00">Var: n</text>
</g>
<!-- 0x55f95692efe0&#45;&gt;0x55f9569343d0 -->
<g id="edge5" class="edge">
<title>0x55f95692efe0&#45;&gt;0x55f9569343d0</title>
<path fill="none" stroke="black" d="M165.78,-145.81C157.47,-137 147.2,-126.13 138.08,-116.46"/>
<polygon fill="black" stroke="black" points="140.48,-113.9 131.07,-109.03 135.39,-118.7 140.48,-113.9"/>
</g>
<!-- 0x55f956934330 -->
<g id="node9" class="node">
<title>0x55f956934330</title>
<polygon fill="none" stroke="black" points="219.5,-109 160.5,-109 160.5,-73 219.5,-73 219.5,-109"/>
<text text-anchor="middle" x="190" y="-87.3" font-family="Times,serif" font-size="14.00">Num: 0</text>
</g>
<!-- 0x55f95692efe0&#45;&gt;0x55f956934330 -->
<g id="edge6" class="edge">
<title>0x55f95692efe0&#45;&gt;0x55f956934330</title>
<path fill="none" stroke="black" d="M183.94,-145.81C184.84,-137.79 185.94,-128.05 186.95,-119.07"/>
<polygon fill="black" stroke="black" points="190.44,-119.36 188.08,-109.03 183.48,-118.57 190.44,-119.36"/>
</g>
<!-- 0x55f956934450 -->
<g id="node11" class="node">
<title>0x55f956934450</title>
<polygon fill="lightyellow" stroke="black" points="300,-109 246,-109 246,-73 300,-73 300,-109"/>
<text text-anchor="middle" x="273" y="-87.3" font-family="Times,serif" font-size="14.00">*</text>
</g>
<!-- 0x55f9569344e0&#45;&gt;0x55f956934450 -->
<g id="edge10" class="edge">
<title>0x55f9569344e0&#45;&gt;0x55f956934450</title>
<path fill="none" stroke="black" d="M273,-145.81C273,-137.79 273,-128.05 273,-119.07"/>
<polygon fill="black" stroke="black" points="276.5,-119.03 273,-109.03 269.5,-119.03 276.5,-119.03"/>
</g>
<!-- 0x55f956934480 -->
<g id="node12" class="node">
<title>0x55f956934480</title>
<polygon fill="none" stroke="black" points="234,-36 160,-36 160,0 234,0 234,-36"/>
<text text-anchor="middle" x="197" y="-14.3" font-family="Times,serif" font-size="14.00">Var: result</text>
</g>
<!-- 0x55f956934450&#45;&gt;0x55f956934480 -->
<g id="edge8" class="edge">
<title>0x55f956934450&#45;&gt;0x55f956934480</title>
<path fill="none" stroke="black" d="M254.6,-72.81C244.99,-63.83 233.07,-52.69 222.57,-42.89"/>
<polygon fill="black" stroke="black" points="224.92,-40.3 215.23,-36.03 220.15,-45.41 224.92,-40.3"/>
</g>
<!-- 0x55f9569344b0 -->
<g id="node13" class="node">
<title>0x55f9569344b0</title>
<polygon fill="none" stroke="black" points="306,-36 252,-36 252,0 306,0 306,-36"/>
<text text-anchor="middle" x="279" y="-14.3" font-family="Times,serif" font-size="14.00">Var: n</text>
</g>
<!-- 0x55f956934450&#45;&gt;0x55f9569344b0 -->
<g id="edge9" class="edge">
<title>0x55f956934450&#45;&gt;0x55f9569344b0</title>
<path fill="none" stroke="black" d="M274.45,-72.81C275.13,-64.79 275.95,-55.05 276.71,-46.07"/>
<polygon fill="black" stroke="black" points="280.21,-46.29 277.56,-36.03 273.23,-45.7 280.21,-46.29"/>
</g>
<!-- 0x55f956934540 -->
<g id="node15" class="node">
<title>0x55f956934540</title>
<polygon fill="lightyellow" stroke="black" points="398,-109 344,-109 344,-73 398,-73 398,-109"/>
<text text-anchor="middle" x="371" y="-87.3" font-family="Times,serif" font-size="14.00">&#45;</text>
</g>
<!-- 0x55f9569345c0&#45;&gt;0x55f956934540 -->
<g id="edge14" class="edge">
<title>0x55f9569345c0&#45;&gt;0x55f956934540</title>
<path fill="none" stroke="black" d="M371,-145.81C371,-137.79 371,-128.05 371,-119.07"/>
<polygon fill="black" stroke="black" points="374.5,-119.03 371,-109.03 367.5,-119.03 374.5,-119.03"/>
</g>
<!-- 0x55f956934570 -->
<g id="node16" class="node">
<title>0x55f956934570</title>
<polygon fill="none" stroke="black" points="391,-36 337,-36 337,0 391,0 391,-36"/>
<text text-anchor="middle" x="364" y="-14.3" font-family="Times,serif" font-size="14.00">Var: n</text>
</g>
<!-- 0x55f956934540&#45;&gt;0x55f956934570 -->
<g id="edge12" class="edge">
<title>0x55f956934540&#45;&gt;0x55f956934570</title>
<path fill="none" stroke="black" d="M369.31,-72.81C368.51,-64.79 367.55,-55.05 366.67,-46.07"/>
<polygon fill="black" stroke="black" points="370.14,-45.64 365.68,-36.03 363.18,-46.32 370.14,-45.64"/>
</g>
<!-- 0x55f9569345a0 -->
<g id="node17" class="node">
<title>0x55f9569345a0</title>
<polygon fill="none" stroke="black" points="468.5,-36 409.5,-36 409.5,0 468.5,0 468.5,-36"/>
<text text-anchor="middle" x="439" y="-14.3" font-family="Times,serif" font-size="14.00">Num: 1</text>
</g>
<!-- 0x55f956934540&#45;&gt;0x55f9569345a0 -->
<g id="edge13" class="edge">
<title>0x55f956934540&#45;&gt;0x55f9569345a0</title>
<path fill="none" stroke="black" d="M387.46,-72.81C395.9,-64 406.32,-53.13 415.58,-43.46"/>
<polygon fill="black" stroke="black" points="418.3,-45.67 422.69,-36.03 413.25,-40.83 418.3,-45.67"/>
</g>
<!-- 0x55f9569346a0 -->
<g id="node19" class="node">
<title>0x55f9569346a0</title>
<polygon fill="none" stroke="black" points="497,-182 423,-182 423,-146 497,-146 497,-182"/>
<text text-anchor="middle" x="460" y="-160.3" font-family="Times,serif" font-size="14.00">Var: result</text>
</g>
<!-- 0x55f9569343b0&#45;&gt;0x55f9569346a0 -->
<g id="edge17" class="edge">
<title>0x55f9569343b0&#45;&gt;0x55f9569346a0</title>
<path fill="none" stroke="black" d="M420.92,-232.8C427.82,-220.82 437.16,-204.62 444.98,-191.06"/>
<polygon fill="black" stroke="black" points="448.14,-192.59 450.1,-182.18 442.07,-189.09 448.14,-192.59"/>
</g>
</g>
</svg>
