<?xml version="1.0" encoding="UTF-8" standalone="no"?>
<!DOCTYPE svg PUBLIC "-//W3C//DTD SVG 1.1//EN"
 "http://www.w3.org/Graphics/SVG/1.1/DTD/svg11.dtd">
<!-- Generated by graphviz version 2.43.0 (0)
 -->
<!-- Title: AST Pages: 1 -->
<svg width="377pt" height="476pt"
 viewBox="0.00 0.00 376.50 476.00" xmlns="http://www.w3.org/2000/svg" xmlns:xlink="http://www.w3.org/1999/xlink">
<g id="graph0" class="graph" transform="scale(1 1) rotate(0) translate(4 472)">
<title>AST</title>
<polygon fill="white" stroke="transparent" points="-4,4 -4,-472 372.5,-472 372.5,4 -4,4"/>
<!-- 0x5a275ed5ac40 -->
<g id="node1" class="node">
<title>0x5a275ed5ac40</title>
<polygon fill="none" stroke="black" points="238.5,-468 159.5,-468 159.5,-432 238.5,-432 238.5,-468"/>
<text text-anchor="middle" x="199" y="-446.3" font-family="Times,serif" font-size="14.00">Program</text>
</g>
<!-- 0x504000000050 -->
<g id="node2" class="node">
<title>0x504000000050</title>
<polygon fill="lightblue" stroke="black" points="86,-396 0,-396 0,-360 86,-360 86,-396"/>
<text text-anchor="middle" x="43" y="-374.3" font-family="Times,serif" font-size="14.00">Assign: a </text>
</g>
<!-- 0x5a275ed5ac40&#45;&gt;0x504000000050 -->
<g id="edge2" class="edge">
<title>0x5a275ed5ac40&#45;&gt;0x504000000050</title>
<path fill="none" stroke="black" d="M160.84,-431.88C139.61,-422.35 112.99,-410.41 90.43,-400.28"/>
<polygon fill="black" stroke="black" points="91.59,-396.97 81.04,-396.07 88.73,-403.36 91.59,-396.97"/>
</g>
<!-- 0x504000000090 -->
<g id="node4" class="node">
<title>0x504000000090</title>
<polygon fill="lightblue" stroke="black" points="189.5,-396 104.5,-396 104.5,-360 189.5,-360 189.5,-396"/>
<text text-anchor="middle" x="147" y="-374.3" font-family="Times,serif" font-size="14.00">Assign: c </text>
</g>
<!-- 0x5a275ed5ac40&#45;&gt;0x504000000090 -->
<g id="edge4" class="edge">
<title>0x5a275ed5ac40&#45;&gt;0x504000000090</title>
<path fill="none" stroke="black" d="M186.15,-431.7C179.97,-423.39 172.46,-413.28 165.68,-404.14"/>
<polygon fill="black" stroke="black" points="168.48,-402.04 159.71,-396.1 162.86,-406.22 168.48,-402.04"/>
</g>
<!-- 0x504000000150 -->
<g id="node6" class="node">
<title>0x504000000150</title>
<polygon fill="lightblue" stroke="black" points="294,-396 208,-396 208,-360 294,-360 294,-396"/>
<text text-anchor="middle" x="251" y="-374.3" font-family="Times,serif" font-size="14.00">Assign: b </text>
</g>
<!-- 0x5a275ed5ac40&#45;&gt;0x504000000150 -->
<g id="edge14" class="edge">
<title>0x5a275ed5ac40&#45;&gt;0x504000000150</title>
<path fill="none" stroke="black" d="M211.85,-431.7C218.03,-423.39 225.54,-413.28 232.32,-404.14"/>
<polygon fill="black" stroke="black" points="235.14,-406.22 238.29,-396.1 229.52,-402.04 235.14,-406.22"/>
</g>
<!-- 0x502000000130 -->
<g id="node16" class="node">
<title>0x502000000130</title>
<polygon fill="none" stroke="black" points="366,-396 312,-396 312,-360 366,-360 366,-396"/>
<text text-anchor="middle" x="339" y="-374.3" font-family="Times,serif" font-size="14.00">Print</text>
</g>
<!-- 0x5a275ed5ac40&#45;&gt;0x502000000130 -->
<g id="edge16" class="edge">
<title>0x5a275ed5ac40&#45;&gt;0x502000000130</title>
<path fill="none" stroke="black" d="M233.25,-431.88C254.26,-421.37 281.15,-407.92 302.56,-397.22"/>
<polygon fill="black" stroke="black" points="304.28,-400.27 311.66,-392.67 301.15,-394.01 304.28,-400.27"/>
</g>
<!-- 0x502000000050 -->
<g id="node3" class="node">
<title>0x502000000050</title>
<polygon fill="none" stroke="black" points="77.5,-324 8.5,-324 8.5,-288 77.5,-288 77.5,-324"/>
<text text-anchor="middle" x="43" y="-302.3" font-family="Times,serif" font-size="14.00">Num: 3</text>
</g>
<!-- 0x504000000050&#45;&gt;0x502000000050 -->
<g id="edge1" class="edge">
<title>0x504000000050&#45;&gt;0x502000000050</title>
<path fill="none" stroke="black" d="M43,-359.7C43,-351.98 43,-342.71 43,-334.11"/>
<polygon fill="black" stroke="black" points="46.5,-334.1 43,-324.1 39.5,-334.1 46.5,-334.1"/>
</g>
<!-- 0x502000000090 -->
<g id="node5" class="node">
<title>0x502000000090</title>
<polygon fill="none" stroke="black" points="195,-324 99,-324 99,-288 195,-288 195,-324"/>
<text text-anchor="middle" x="147" y="-302.3" font-family="Times,serif" font-size="14.00">Num: 1120</text>
</g>
<!-- 0x504000000090&#45;&gt;0x502000000090 -->
<g id="edge3" class="edge">
<title>0x504000000090&#45;&gt;0x502000000090</title>
<path fill="none" stroke="black" d="M147,-359.7C147,-351.98 147,-342.71 147,-334.11"/>
<polygon fill="black" stroke="black" points="150.5,-334.1 147,-324.1 143.5,-334.1 150.5,-334.1"/>
</g>
<!-- 0x503000000520 -->
<g id="node7" class="node">
<title>0x503000000520</title>
<polygon fill="lightyellow" stroke="black" points="278,-324 224,-324 224,-288 278,-288 278,-324"/>
<text text-anchor="middle" x="251" y="-302.3" font-family="Times,serif" font-size="14.00">/</text>
</g>
<!-- 0x504000000150&#45;&gt;0x503000000520 -->
<g id="edge13" class="edge">
<title>0x504000000150&#45;&gt;0x503000000520</title>
<path fill="none" stroke="black" d="M251,-359.7C251,-351.98 251,-342.71 251,-334.11"/>
<polygon fill="black" stroke="black" points="254.5,-334.1 251,-324.1 247.5,-334.1 254.5,-334.1"/>
</g>
<!-- 0x5030000004f0 -->
<g id="node8" class="node">
<title>0x5030000004f0</title>
<polygon fill="lightyellow" stroke="black" points="236,-252 182,-252 182,-216 236,-216 236,-252"/>
<text text-anchor="middle" x="209" y="-230.3" font-family="Times,serif" font-size="14.00">*</text>
</g>
<!-- 0x503000000520&#45;&gt;0x5030000004f0 -->
<g id="edge11" class="edge">
<title>0x503000000520&#45;&gt;0x5030000004f0</title>
<path fill="none" stroke="black" d="M240.62,-287.7C235.74,-279.56 229.81,-269.69 224.42,-260.7"/>
<polygon fill="black" stroke="black" points="227.41,-258.88 219.26,-252.1 221.41,-262.48 227.41,-258.88"/>
</g>
<!-- 0x502000000110 -->
<g id="node15" class="node">
<title>0x502000000110</title>
<polygon fill="none" stroke="black" points="332,-252 254,-252 254,-216 332,-216 332,-252"/>
<text text-anchor="middle" x="293" y="-230.3" font-family="Times,serif" font-size="14.00">Num: 10</text>
</g>
<!-- 0x503000000520&#45;&gt;0x502000000110 -->
<g id="edge12" class="edge">
<title>0x503000000520&#45;&gt;0x502000000110</title>
<path fill="none" stroke="black" d="M261.38,-287.7C266.26,-279.56 272.19,-269.69 277.58,-260.7"/>
<polygon fill="black" stroke="black" points="280.59,-262.48 282.74,-252.1 274.59,-258.88 280.59,-262.48"/>
</g>
<!-- 0x5030000004c0 -->
<g id="node9" class="node">
<title>0x5030000004c0</title>
<polygon fill="lightyellow" stroke="black" points="199,-180 145,-180 145,-144 199,-144 199,-180"/>
<text text-anchor="middle" x="172" y="-158.3" font-family="Times,serif" font-size="14.00">+</text>
</g>
<!-- 0x5030000004f0&#45;&gt;0x5030000004c0 -->
<g id="edge9" class="edge">
<title>0x5030000004f0&#45;&gt;0x5030000004c0</title>
<path fill="none" stroke="black" d="M199.85,-215.7C195.6,-207.64 190.44,-197.89 185.73,-188.98"/>
<polygon fill="black" stroke="black" points="188.81,-187.31 181.04,-180.1 182.62,-190.58 188.81,-187.31"/>
</g>
<!-- 0x504000000110 -->
<g id="node14" class="node">
<title>0x504000000110</title>
<polygon fill="none" stroke="black" points="274.5,-180 217.5,-180 217.5,-144 274.5,-144 274.5,-180"/>
<text text-anchor="middle" x="246" y="-158.3" font-family="Times,serif" font-size="14.00">Var: c</text>
</g>
<!-- 0x5030000004f0&#45;&gt;0x504000000110 -->
<g id="edge10" class="edge">
<title>0x5030000004f0&#45;&gt;0x504000000110</title>
<path fill="none" stroke="black" d="M218.15,-215.7C222.4,-207.64 227.56,-197.89 232.27,-188.98"/>
<polygon fill="black" stroke="black" points="235.38,-190.58 236.96,-180.1 229.19,-187.31 235.38,-190.58"/>
</g>
<!-- 0x503000000490 -->
<g id="node10" class="node">
<title>0x503000000490</title>
<polygon fill="lightyellow" stroke="black" points="159,-108 105,-108 105,-72 159,-72 159,-108"/>
<text text-anchor="middle" x="132" y="-86.3" font-family="Times,serif" font-size="14.00">*</text>
</g>
<!-- 0x5030000004c0&#45;&gt;0x503000000490 -->
<g id="edge7" class="edge">
<title>0x5030000004c0&#45;&gt;0x503000000490</title>
<path fill="none" stroke="black" d="M162.11,-143.7C157.51,-135.64 151.94,-125.89 146.85,-116.98"/>
<polygon fill="black" stroke="black" points="149.77,-115.05 141.77,-108.1 143.7,-118.52 149.77,-115.05"/>
</g>
<!-- 0x5020000000f0 -->
<g id="node13" class="node">
<title>0x5020000000f0</title>
<polygon fill="none" stroke="black" points="246.5,-108 177.5,-108 177.5,-72 246.5,-72 246.5,-108"/>
<text text-anchor="middle" x="212" y="-86.3" font-family="Times,serif" font-size="14.00">Num: 5</text>
</g>
<!-- 0x5030000004c0&#45;&gt;0x5020000000f0 -->
<g id="edge8" class="edge">
<title>0x5030000004c0&#45;&gt;0x5020000000f0</title>
<path fill="none" stroke="black" d="M181.89,-143.7C186.49,-135.64 192.06,-125.89 197.15,-116.98"/>
<polygon fill="black" stroke="black" points="200.3,-118.52 202.23,-108.1 194.23,-115.05 200.3,-118.52"/>
</g>
<!-- 0x5020000000d0 -->
<g id="node11" class="node">
<title>0x5020000000d0</title>
<polygon fill="none" stroke="black" points="128,-36 50,-36 50,0 128,0 128,-36"/>
<text text-anchor="middle" x="89" y="-14.3" font-family="Times,serif" font-size="14.00">Num: 10</text>
</g>
<!-- 0x503000000490&#45;&gt;0x5020000000d0 -->
<g id="edge5" class="edge">
<title>0x503000000490&#45;&gt;0x5020000000d0</title>
<path fill="none" stroke="black" d="M121.37,-71.7C116.37,-63.56 110.31,-53.69 104.79,-44.7"/>
<polygon fill="black" stroke="black" points="107.72,-42.79 99.51,-36.1 101.76,-46.46 107.72,-42.79"/>
</g>
<!-- 0x5040000000d0 -->
<g id="node12" class="node">
<title>0x5040000000d0</title>
<polygon fill="none" stroke="black" points="204,-36 146,-36 146,0 204,0 204,-36"/>
<text text-anchor="middle" x="175" y="-14.3" font-family="Times,serif" font-size="14.00">Var: a</text>
</g>
<!-- 0x503000000490&#45;&gt;0x5040000000d0 -->
<g id="edge6" class="edge">
<title>0x503000000490&#45;&gt;0x5040000000d0</title>
<path fill="none" stroke="black" d="M142.63,-71.7C147.63,-63.56 153.69,-53.69 159.21,-44.7"/>
<polygon fill="black" stroke="black" points="162.24,-46.46 164.49,-36.1 156.28,-42.79 162.24,-46.46"/>
</g>
<!-- 0x504000000190 -->
<g id="node17" class="node">
<title>0x504000000190</title>
<polygon fill="none" stroke="black" points="368.5,-324 309.5,-324 309.5,-288 368.5,-288 368.5,-324"/>
<text text-anchor="middle" x="339" y="-302.3" font-family="Times,serif" font-size="14.00">Var: b</text>
</g>
<!-- 0x502000000130&#45;&gt;0x504000000190 -->
<g id="edge15" class="edge">
<title>0x502000000130&#45;&gt;0x504000000190</title>
<path fill="none" stroke="black" d="M339,-359.7C339,-351.98 339,-342.71 339,-334.11"/>
<polygon fill="black" stroke="black" points="342.5,-334.1 339,-324.1 335.5,-334.1 342.5,-334.1"/>
</g>
</g>
</svg>
