<?xml version="1.0" encoding="UTF-8" standalone="no"?>
<!DOCTYPE svg PUBLIC "-//W3C//DTD SVG 1.1//EN"
 "http://www.w3.org/Graphics/SVG/1.1/DTD/svg11.dtd">
<!-- Generated by graphviz version 2.43.0 (0)
 -->
<!-- Title: AST Pages: 1 -->
<svg width="565pt" height="771pt"
 viewBox="0.00 0.00 565.00 771.00" xmlns="http://www.w3.org/2000/svg" xmlns:xlink="http://www.w3.org/1999/xlink">
<g id="graph0" class="graph" transform="scale(1 1) rotate(0) translate(4 767)">
<title>AST</title>
<polygon fill="white" stroke="transparent" points="-4,4 -4,-767 561,-767 561,4 -4,4"/>
<!-- 0x59a1238b9450 -->
<g id="node1" class="node">
<title>0x59a1238b9450</title>
<polygon fill="none" stroke="black" points="239,-763 160,-763 160,-727 239,-727 239,-763"/>
<text text-anchor="middle" x="199.5" y="-741.3" font-family="Times,serif" font-size="14.00">Program</text>
</g>
<!-- 0x59a14ccb1be0 -->
<g id="node2" class="node">
<title>0x59a14ccb1be0</title>
<polygon fill="lightblue" stroke="black" points="103.5,-690 17.5,-690 17.5,-654 103.5,-654 103.5,-690"/>
<text text-anchor="middle" x="60.5" y="-668.3" font-family="Times,serif" font-size="14.00">Assign: a </text>
</g>
<!-- 0x59a1238b9450&#45;&gt;0x59a14ccb1be0 -->
<g id="edge2" class="edge">
<title>0x59a1238b9450&#45;&gt;0x59a14ccb1be0</title>
<path fill="none" stroke="black" d="M166.21,-726.99C147.26,-717.32 123.34,-705.1 103.04,-694.73"/>
<polygon fill="black" stroke="black" points="104.5,-691.55 94,-690.11 101.32,-697.78 104.5,-691.55"/>
</g>
<!-- 0x59a14ccb21f0 -->
<g id="node4" class="node">
<title>0x59a14ccb21f0</title>
<polygon fill="none" stroke="black" points="228,-690 171,-690 171,-654 228,-654 228,-690"/>
<text text-anchor="middle" x="199.5" y="-668.3" font-family="Times,serif" font-size="14.00">While</text>
</g>
<!-- 0x59a1238b9450&#45;&gt;0x59a14ccb21f0 -->
<g id="edge28" class="edge">
<title>0x59a1238b9450&#45;&gt;0x59a14ccb21f0</title>
<path fill="none" stroke="black" d="M199.5,-726.81C199.5,-718.79 199.5,-709.05 199.5,-700.07"/>
<polygon fill="black" stroke="black" points="203,-700.03 199.5,-690.03 196,-700.03 203,-700.03"/>
</g>
<!-- 0x59a14ccb1c20 -->
<g id="node30" class="node">
<title>0x59a14ccb1c20</title>
<polygon fill="none" stroke="black" points="317.5,-690 263.5,-690 263.5,-654 317.5,-654 317.5,-690"/>
<text text-anchor="middle" x="290.5" y="-668.3" font-family="Times,serif" font-size="14.00">Print</text>
</g>
<!-- 0x59a1238b9450&#45;&gt;0x59a14ccb1c20 -->
<g id="edge30" class="edge">
<title>0x59a1238b9450&#45;&gt;0x59a14ccb1c20</title>
<path fill="none" stroke="black" d="M221.53,-726.81C233.27,-717.66 247.87,-706.26 260.62,-696.32"/>
<polygon fill="black" stroke="black" points="262.94,-698.94 268.67,-690.03 258.64,-693.42 262.94,-698.94"/>
</g>
<!-- 0x59a14ccb1bc0 -->
<g id="node3" class="node">
<title>0x59a14ccb1bc0</title>
<polygon fill="none" stroke="black" points="101,-603 0,-603 0,-567 101,-567 101,-603"/>
<text text-anchor="middle" x="50.5" y="-581.3" font-family="Times,serif" font-size="14.00">Num: &#45;1000</text>
</g>
<!-- 0x59a14ccb1be0&#45;&gt;0x59a14ccb1bc0 -->
<g id="edge1" class="edge">
<title>0x59a14ccb1be0&#45;&gt;0x59a14ccb1bc0</title>
<path fill="none" stroke="black" d="M58.48,-653.8C57.11,-642.16 55.27,-626.55 53.7,-613.24"/>
<polygon fill="black" stroke="black" points="57.17,-612.7 52.52,-603.18 50.21,-613.52 57.17,-612.7"/>
</g>
<!-- 0x59a14ccac870 -->
<g id="node5" class="node">
<title>0x59a14ccac870</title>
<polygon fill="lightyellow" stroke="black" points="173.5,-603 119.5,-603 119.5,-567 173.5,-567 173.5,-603"/>
<text text-anchor="middle" x="146.5" y="-581.3" font-family="Times,serif" font-size="14.00">&lt;</text>
</g>
<!-- 0x59a14ccb21f0&#45;&gt;0x59a14ccac870 -->
<g id="edge5" class="edge">
<title>0x59a14ccb21f0&#45;&gt;0x59a14ccac870</title>
<path fill="none" stroke="black" d="M187.89,-653.64C184.2,-648.04 180.14,-641.79 176.5,-636 171.62,-628.24 166.44,-619.71 161.78,-611.93"/>
<polygon fill="black" stroke="black" points="164.73,-610.03 156.6,-603.23 158.71,-613.61 164.73,-610.03"/>
<text text-anchor="middle" x="193.5" y="-624.8" font-family="Times,serif" font-size="14.00" fill="#7f7f7f">cond</text>
</g>
<!-- 0x59a14ccb2020 -->
<g id="node8" class="node">
<title>0x59a14ccb2020</title>
<polygon fill="none" stroke="black" points="259.5,-603 205.5,-603 205.5,-567 259.5,-567 259.5,-603"/>
<text text-anchor="middle" x="232.5" y="-581.3" font-family="Times,serif" font-size="14.00">IF</text>
</g>
<!-- 0x59a14ccb21f0&#45;&gt;0x59a14ccb2020 -->
<g id="edge27" class="edge">
<title>0x59a14ccb21f0&#45;&gt;0x59a14ccb2020</title>
<path fill="none" stroke="black" d="M206.18,-653.8C210.74,-642.05 216.88,-626.24 222.08,-612.84"/>
<polygon fill="black" stroke="black" points="225.48,-613.76 225.83,-603.18 218.95,-611.23 225.48,-613.76"/>
<text text-anchor="middle" x="236" y="-624.8" font-family="Times,serif" font-size="14.00" fill="#7f7f7f">body</text>
</g>
<!-- 0x59a14ccb1c40 -->
<g id="node6" class="node">
<title>0x59a14ccb1c40</title>
<polygon fill="none" stroke="black" points="85.5,-516 27.5,-516 27.5,-480 85.5,-480 85.5,-516"/>
<text text-anchor="middle" x="56.5" y="-494.3" font-family="Times,serif" font-size="14.00">Var: a</text>
</g>
<!-- 0x59a14ccac870&#45;&gt;0x59a14ccb1c40 -->
<g id="edge3" class="edge">
<title>0x59a14ccac870&#45;&gt;0x59a14ccb1c40</title>
<path fill="none" stroke="black" d="M128.29,-566.8C114.99,-554.24 96.79,-537.05 82.04,-523.12"/>
<polygon fill="black" stroke="black" points="84.36,-520.5 74.69,-516.18 79.55,-525.59 84.36,-520.5"/>
</g>
<!-- 0x59a14ccb1c70 -->
<g id="node7" class="node">
<title>0x59a14ccb1c70</title>
<polygon fill="none" stroke="black" points="181.5,-516 103.5,-516 103.5,-480 181.5,-480 181.5,-516"/>
<text text-anchor="middle" x="142.5" y="-494.3" font-family="Times,serif" font-size="14.00">Num: 10</text>
</g>
<!-- 0x59a14ccac870&#45;&gt;0x59a14ccb1c70 -->
<g id="edge4" class="edge">
<title>0x59a14ccac870&#45;&gt;0x59a14ccb1c70</title>
<path fill="none" stroke="black" d="M145.69,-566.8C145.14,-555.16 144.41,-539.55 143.78,-526.24"/>
<polygon fill="black" stroke="black" points="147.27,-526 143.31,-516.18 140.28,-526.33 147.27,-526"/>
</g>
<!-- 0x59a14ccb1c90 -->
<g id="node9" class="node">
<title>0x59a14ccb1c90</title>
<polygon fill="none" stroke="black" points="269,-516 200,-516 200,-480 269,-480 269,-516"/>
<text text-anchor="middle" x="234.5" y="-494.3" font-family="Times,serif" font-size="14.00">Num: 1</text>
</g>
<!-- 0x59a14ccb2020&#45;&gt;0x59a14ccb1c90 -->
<g id="edge6" class="edge">
<title>0x59a14ccb2020&#45;&gt;0x59a14ccb1c90</title>
<path fill="none" stroke="black" d="M232.9,-566.8C233.18,-555.16 233.55,-539.55 233.86,-526.24"/>
<polygon fill="black" stroke="black" points="237.36,-526.26 234.1,-516.18 230.36,-526.09 237.36,-526.26"/>
<text text-anchor="middle" x="251.5" y="-537.8" font-family="Times,serif" font-size="14.00" fill="#7f7f7f">cond</text>
</g>
<!-- 0x59a14ccb2120 -->
<g id="node10" class="node">
<title>0x59a14ccb2120</title>
<polygon fill="none" stroke="black" points="341.5,-516 287.5,-516 287.5,-480 341.5,-480 341.5,-516"/>
<text text-anchor="middle" x="314.5" y="-494.3" font-family="Times,serif" font-size="14.00">IF</text>
</g>
<!-- 0x59a14ccb2020&#45;&gt;0x59a14ccb2120 -->
<g id="edge26" class="edge">
<title>0x59a14ccb2020&#45;&gt;0x59a14ccb2120</title>
<path fill="none" stroke="black" d="M253.4,-566.78C259.72,-561.29 266.56,-555.06 272.5,-549 280.12,-541.23 287.93,-532.25 294.72,-524.07"/>
<polygon fill="black" stroke="black" points="297.51,-526.19 301.12,-516.23 292.08,-521.76 297.51,-526.19"/>
<text text-anchor="middle" x="304" y="-537.8" font-family="Times,serif" font-size="14.00" fill="#7f7f7f">body</text>
</g>
<!-- 0x59a14ccb1cb0 -->
<g id="node11" class="node">
<title>0x59a14ccb1cb0</title>
<polygon fill="none" stroke="black" points="225,-429 156,-429 156,-393 225,-393 225,-429"/>
<text text-anchor="middle" x="190.5" y="-407.3" font-family="Times,serif" font-size="14.00">Num: 1</text>
</g>
<!-- 0x59a14ccb2120&#45;&gt;0x59a14ccb1cb0 -->
<g id="edge7" class="edge">
<title>0x59a14ccb2120&#45;&gt;0x59a14ccb1cb0</title>
<path fill="none" stroke="black" d="M287.38,-484.34C275.13,-478.2 260.71,-470.34 248.5,-462 237.15,-454.25 225.51,-444.6 215.67,-435.86"/>
<polygon fill="black" stroke="black" points="217.96,-433.21 208.2,-429.09 213.26,-438.4 217.96,-433.21"/>
<text text-anchor="middle" x="265.5" y="-450.8" font-family="Times,serif" font-size="14.00" fill="#7f7f7f">cond</text>
</g>
<!-- 0x59a14ccb1f50 -->
<g id="node12" class="node">
<title>0x59a14ccb1f50</title>
<polygon fill="none" stroke="black" points="297.5,-429 243.5,-429 243.5,-393 297.5,-393 297.5,-429"/>
<text text-anchor="middle" x="270.5" y="-407.3" font-family="Times,serif" font-size="14.00">IF</text>
</g>
<!-- 0x59a14ccb2120&#45;&gt;0x59a14ccb1f50 -->
<g id="edge19" class="edge">
<title>0x59a14ccb2120&#45;&gt;0x59a14ccb1f50</title>
<path fill="none" stroke="black" d="M303.65,-479.77C300.27,-474.17 296.61,-467.89 293.5,-462 289.55,-454.51 285.58,-446.22 282.07,-438.58"/>
<polygon fill="black" stroke="black" points="285.22,-437.03 277.92,-429.35 278.83,-439.91 285.22,-437.03"/>
<text text-anchor="middle" x="311" y="-450.8" font-family="Times,serif" font-size="14.00" fill="#7f7f7f">body</text>
</g>
<!-- 0x59a14ccb1fe0 -->
<g id="node24" class="node">
<title>0x59a14ccb1fe0</title>
<polygon fill="lightblue" stroke="black" points="401.5,-429 315.5,-429 315.5,-393 401.5,-393 401.5,-429"/>
<text text-anchor="middle" x="358.5" y="-407.3" font-family="Times,serif" font-size="14.00">Assign: b </text>
</g>
<!-- 0x59a14ccb2120&#45;&gt;0x59a14ccb1fe0 -->
<g id="edge21" class="edge">
<title>0x59a14ccb2120&#45;&gt;0x59a14ccb1fe0</title>
<path fill="none" stroke="black" d="M323.4,-479.8C329.61,-467.82 337.99,-451.62 345.01,-438.06"/>
<polygon fill="black" stroke="black" points="348.12,-439.67 349.61,-429.18 341.9,-436.45 348.12,-439.67"/>
<text text-anchor="middle" x="356" y="-450.8" font-family="Times,serif" font-size="14.00" fill="#7f7f7f">body</text>
</g>
<!-- 0x59a14ccb20d0 -->
<g id="node26" class="node">
<title>0x59a14ccb20d0</title>
<polygon fill="none" stroke="black" points="473.5,-429 419.5,-429 419.5,-393 473.5,-393 473.5,-429"/>
<text text-anchor="middle" x="446.5" y="-407.3" font-family="Times,serif" font-size="14.00">IF</text>
</g>
<!-- 0x59a14ccb2120&#45;&gt;0x59a14ccb20d0 -->
<g id="edge25" class="edge">
<title>0x59a14ccb2120&#45;&gt;0x59a14ccb20d0</title>
<path fill="none" stroke="black" d="M341.58,-482.88C352.87,-476.76 366,-469.33 377.5,-462 390.45,-453.75 404.25,-443.97 416.07,-435.26"/>
<polygon fill="black" stroke="black" points="418.36,-437.92 424.29,-429.14 414.18,-432.3 418.36,-437.92"/>
<text text-anchor="middle" x="416" y="-450.8" font-family="Times,serif" font-size="14.00" fill="#7f7f7f">body</text>
</g>
<!-- 0x59a14ccb1cf0 -->
<g id="node13" class="node">
<title>0x59a14ccb1cf0</title>
<polygon fill="none" stroke="black" points="231,-342 162,-342 162,-306 231,-306 231,-342"/>
<text text-anchor="middle" x="196.5" y="-320.3" font-family="Times,serif" font-size="14.00">Num: 1</text>
</g>
<!-- 0x59a14ccb1f50&#45;&gt;0x59a14ccb1cf0 -->
<g id="edge8" class="edge">
<title>0x59a14ccb1f50&#45;&gt;0x59a14ccb1cf0</title>
<path fill="none" stroke="black" d="M252.62,-392.96C246.99,-387.38 240.85,-381.05 235.5,-375 228.57,-367.16 221.42,-358.26 215.15,-350.16"/>
<polygon fill="black" stroke="black" points="217.85,-347.91 209,-342.08 212.28,-352.16 217.85,-347.91"/>
<text text-anchor="middle" x="252.5" y="-363.8" font-family="Times,serif" font-size="14.00" fill="#7f7f7f">cond</text>
</g>
<!-- 0x59a14ccb1ee0 -->
<g id="node14" class="node">
<title>0x59a14ccb1ee0</title>
<polygon fill="none" stroke="black" points="303.5,-342 249.5,-342 249.5,-306 303.5,-306 303.5,-342"/>
<text text-anchor="middle" x="276.5" y="-320.3" font-family="Times,serif" font-size="14.00">IF</text>
</g>
<!-- 0x59a14ccb1f50&#45;&gt;0x59a14ccb1ee0 -->
<g id="edge18" class="edge">
<title>0x59a14ccb1f50&#45;&gt;0x59a14ccb1ee0</title>
<path fill="none" stroke="black" d="M271.71,-392.8C272.54,-381.16 273.64,-365.55 274.58,-352.24"/>
<polygon fill="black" stroke="black" points="278.07,-352.4 275.29,-342.18 271.09,-351.9 278.07,-352.4"/>
<text text-anchor="middle" x="292" y="-363.8" font-family="Times,serif" font-size="14.00" fill="#7f7f7f">body</text>
</g>
<!-- 0x59a14ccb1d10 -->
<g id="node15" class="node">
<title>0x59a14ccb1d10</title>
<polygon fill="none" stroke="black" points="276,-255 207,-255 207,-219 276,-219 276,-255"/>
<text text-anchor="middle" x="241.5" y="-233.3" font-family="Times,serif" font-size="14.00">Num: 1</text>
</g>
<!-- 0x59a14ccb1ee0&#45;&gt;0x59a14ccb1d10 -->
<g id="edge9" class="edge">
<title>0x59a14ccb1ee0&#45;&gt;0x59a14ccb1d10</title>
<path fill="none" stroke="black" d="M264.86,-305.68C261.52,-300.19 258.08,-293.99 255.5,-288 252.36,-280.71 249.73,-272.53 247.62,-264.92"/>
<polygon fill="black" stroke="black" points="250.96,-263.86 245.08,-255.05 244.18,-265.61 250.96,-263.86"/>
<text text-anchor="middle" x="272.5" y="-276.8" font-family="Times,serif" font-size="14.00" fill="#7f7f7f">cond</text>
</g>
<!-- 0x59a14ccb1e80 -->
<g id="node16" class="node">
<title>0x59a14ccb1e80</title>
<polygon fill="lightblue" stroke="black" points="356.5,-255 294.5,-255 294.5,-219 356.5,-219 356.5,-255"/>
<text text-anchor="middle" x="325.5" y="-233.3" font-family="Times,serif" font-size="14.00">a += :</text>
</g>
<!-- 0x59a14ccb1ee0&#45;&gt;0x59a14ccb1e80 -->
<g id="edge17" class="edge">
<title>0x59a14ccb1ee0&#45;&gt;0x59a14ccb1e80</title>
<path fill="none" stroke="black" d="M286.42,-305.8C293.32,-293.82 302.66,-277.62 310.48,-264.06"/>
<polygon fill="black" stroke="black" points="313.64,-265.59 315.6,-255.18 307.57,-262.09 313.64,-265.59"/>
<text text-anchor="middle" x="322" y="-276.8" font-family="Times,serif" font-size="14.00" fill="#7f7f7f">body</text>
</g>
<!-- 0x59a14ccb1e50 -->
<g id="node17" class="node">
<title>0x59a14ccb1e50</title>
<polygon fill="lightyellow" stroke="black" points="352.5,-182 298.5,-182 298.5,-146 352.5,-146 352.5,-182"/>
<text text-anchor="middle" x="325.5" y="-160.3" font-family="Times,serif" font-size="14.00">or</text>
</g>
<!-- 0x59a14ccb1e80&#45;&gt;0x59a14ccb1e50 -->
<g id="edge16" class="edge">
<title>0x59a14ccb1e80&#45;&gt;0x59a14ccb1e50</title>
<path fill="none" stroke="black" d="M325.5,-218.81C325.5,-210.79 325.5,-201.05 325.5,-192.07"/>
<polygon fill="black" stroke="black" points="329,-192.03 325.5,-182.03 322,-192.03 329,-192.03"/>
</g>
<!-- 0x59a14ccb1da0 -->
<g id="node18" class="node">
<title>0x59a14ccb1da0</title>
<polygon fill="lightyellow" stroke="black" points="312.5,-109 258.5,-109 258.5,-73 312.5,-73 312.5,-109"/>
<text text-anchor="middle" x="285.5" y="-87.3" font-family="Times,serif" font-size="14.00">&gt;=</text>
</g>
<!-- 0x59a14ccb1e50&#45;&gt;0x59a14ccb1da0 -->
<g id="edge12" class="edge">
<title>0x59a14ccb1e50&#45;&gt;0x59a14ccb1da0</title>
<path fill="none" stroke="black" d="M315.82,-145.81C311.1,-137.44 305.33,-127.2 300.09,-117.9"/>
<polygon fill="black" stroke="black" points="303.05,-116.02 295.09,-109.03 296.95,-119.46 303.05,-116.02"/>
</g>
<!-- 0x59a14ccb1dd0 -->
<g id="node21" class="node">
<title>0x59a14ccb1dd0</title>
<polygon fill="lightyellow" stroke="black" points="394.5,-109 340.5,-109 340.5,-73 394.5,-73 394.5,-109"/>
<text text-anchor="middle" x="367.5" y="-87.3" font-family="Times,serif" font-size="14.00">&lt;</text>
</g>
<!-- 0x59a14ccb1e50&#45;&gt;0x59a14ccb1dd0 -->
<g id="edge15" class="edge">
<title>0x59a14ccb1e50&#45;&gt;0x59a14ccb1dd0</title>
<path fill="none" stroke="black" d="M335.67,-145.81C340.62,-137.44 346.68,-127.2 352.18,-117.9"/>
<polygon fill="black" stroke="black" points="355.35,-119.42 357.43,-109.03 349.32,-115.85 355.35,-119.42"/>
</g>
<!-- 0x59a14ccb1d60 -->
<g id="node19" class="node">
<title>0x59a14ccb1d60</title>
<polygon fill="none" stroke="black" points="233,-36 164,-36 164,0 233,0 233,-36"/>
<text text-anchor="middle" x="198.5" y="-14.3" font-family="Times,serif" font-size="14.00">Num: 1</text>
</g>
<!-- 0x59a14ccb1da0&#45;&gt;0x59a14ccb1d60 -->
<g id="edge10" class="edge">
<title>0x59a14ccb1da0&#45;&gt;0x59a14ccb1d60</title>
<path fill="none" stroke="black" d="M264.44,-72.81C253.33,-63.74 239.52,-52.48 227.42,-42.6"/>
<polygon fill="black" stroke="black" points="229.33,-39.64 219.37,-36.03 224.9,-45.06 229.33,-39.64"/>
</g>
<!-- 0x59a14ccb1d80 -->
<g id="node20" class="node">
<title>0x59a14ccb1d80</title>
<polygon fill="none" stroke="black" points="320,-36 251,-36 251,0 320,0 320,-36"/>
<text text-anchor="middle" x="285.5" y="-14.3" font-family="Times,serif" font-size="14.00">Num: 3</text>
</g>
<!-- 0x59a14ccb1da0&#45;&gt;0x59a14ccb1d80 -->
<g id="edge11" class="edge">
<title>0x59a14ccb1da0&#45;&gt;0x59a14ccb1d80</title>
<path fill="none" stroke="black" d="M285.5,-72.81C285.5,-64.79 285.5,-55.05 285.5,-46.07"/>
<polygon fill="black" stroke="black" points="289,-46.03 285.5,-36.03 282,-46.03 289,-46.03"/>
</g>
<!-- 0x59a14ccb1e00 -->
<g id="node22" class="node">
<title>0x59a14ccb1e00</title>
<polygon fill="none" stroke="black" points="396.5,-36 338.5,-36 338.5,0 396.5,0 396.5,-36"/>
<text text-anchor="middle" x="367.5" y="-14.3" font-family="Times,serif" font-size="14.00">Var: a</text>
</g>
<!-- 0x59a14ccb1dd0&#45;&gt;0x59a14ccb1e00 -->
<g id="edge13" class="edge">
<title>0x59a14ccb1dd0&#45;&gt;0x59a14ccb1e00</title>
<path fill="none" stroke="black" d="M367.5,-72.81C367.5,-64.79 367.5,-55.05 367.5,-46.07"/>
<polygon fill="black" stroke="black" points="371,-46.03 367.5,-36.03 364,-46.03 371,-46.03"/>
</g>
<!-- 0x59a14ccb1e30 -->
<g id="node23" class="node">
<title>0x59a14ccb1e30</title>
<polygon fill="none" stroke="black" points="492.5,-36 414.5,-36 414.5,0 492.5,0 492.5,-36"/>
<text text-anchor="middle" x="453.5" y="-14.3" font-family="Times,serif" font-size="14.00">Num: 10</text>
</g>
<!-- 0x59a14ccb1dd0&#45;&gt;0x59a14ccb1e30 -->
<g id="edge14" class="edge">
<title>0x59a14ccb1dd0&#45;&gt;0x59a14ccb1e30</title>
<path fill="none" stroke="black" d="M388.32,-72.81C399.3,-63.74 412.95,-52.48 424.91,-42.6"/>
<polygon fill="black" stroke="black" points="427.39,-45.09 432.87,-36.03 422.93,-39.7 427.39,-45.09"/>
</g>
<!-- 0x59a14ccb1fc0 -->
<g id="node25" class="node">
<title>0x59a14ccb1fc0</title>
<polygon fill="none" stroke="black" points="393,-342 324,-342 324,-306 393,-306 393,-342"/>
<text text-anchor="middle" x="358.5" y="-320.3" font-family="Times,serif" font-size="14.00">Num: 0</text>
</g>
<!-- 0x59a14ccb1fe0&#45;&gt;0x59a14ccb1fc0 -->
<g id="edge20" class="edge">
<title>0x59a14ccb1fe0&#45;&gt;0x59a14ccb1fc0</title>
<path fill="none" stroke="black" d="M358.5,-392.8C358.5,-381.16 358.5,-365.55 358.5,-352.24"/>
<polygon fill="black" stroke="black" points="362,-352.18 358.5,-342.18 355,-352.18 362,-352.18"/>
</g>
<!-- 0x59a14ccb2040 -->
<g id="node27" class="node">
<title>0x59a14ccb2040</title>
<polygon fill="none" stroke="black" points="473,-342 414,-342 414,-306 473,-306 473,-342"/>
<text text-anchor="middle" x="443.5" y="-320.3" font-family="Times,serif" font-size="14.00">Var: b</text>
</g>
<!-- 0x59a14ccb20d0&#45;&gt;0x59a14ccb2040 -->
<g id="edge22" class="edge">
<title>0x59a14ccb20d0&#45;&gt;0x59a14ccb2040</title>
<path fill="none" stroke="black" d="M445.89,-392.8C445.48,-381.16 444.93,-365.55 444.46,-352.24"/>
<polygon fill="black" stroke="black" points="447.96,-352.05 444.11,-342.18 440.96,-352.29 447.96,-352.05"/>
<text text-anchor="middle" x="461.5" y="-363.8" font-family="Times,serif" font-size="14.00" fill="#7f7f7f">cond</text>
</g>
<!-- 0x59a14ccb2070 -->
<g id="node28" class="node">
<title>0x59a14ccb2070</title>
<polygon fill="lightblue" stroke="black" points="554,-342 491,-342 491,-306 554,-306 554,-342"/>
<text text-anchor="middle" x="522.5" y="-320.3" font-family="Times,serif" font-size="14.00">b += :</text>
</g>
<!-- 0x59a14ccb20d0&#45;&gt;0x59a14ccb2070 -->
<g id="edge24" class="edge">
<title>0x59a14ccb20d0&#45;&gt;0x59a14ccb2070</title>
<path fill="none" stroke="black" d="M464.89,-392.98C470.68,-387.4 476.99,-381.07 482.5,-375 489.6,-367.18 496.94,-358.28 503.36,-350.18"/>
<polygon fill="black" stroke="black" points="506.27,-352.13 509.67,-342.1 500.76,-347.82 506.27,-352.13"/>
<text text-anchor="middle" x="512" y="-363.8" font-family="Times,serif" font-size="14.00" fill="#7f7f7f">body</text>
</g>
<!-- 0x59a14ccb1f70 -->
<g id="node29" class="node">
<title>0x59a14ccb1f70</title>
<polygon fill="none" stroke="black" points="557,-255 488,-255 488,-219 557,-219 557,-255"/>
<text text-anchor="middle" x="522.5" y="-233.3" font-family="Times,serif" font-size="14.00">Num: 1</text>
</g>
<!-- 0x59a14ccb2070&#45;&gt;0x59a14ccb1f70 -->
<g id="edge23" class="edge">
<title>0x59a14ccb2070&#45;&gt;0x59a14ccb1f70</title>
<path fill="none" stroke="black" d="M522.5,-305.8C522.5,-294.16 522.5,-278.55 522.5,-265.24"/>
<polygon fill="black" stroke="black" points="526,-265.18 522.5,-255.18 519,-265.18 526,-265.18"/>
</g>
<!-- 0x59a14ccb2260 -->
<g id="node31" class="node">
<title>0x59a14ccb2260</title>
<polygon fill="none" stroke="black" points="335.5,-603 277.5,-603 277.5,-567 335.5,-567 335.5,-603"/>
<text text-anchor="middle" x="306.5" y="-581.3" font-family="Times,serif" font-size="14.00">Var: a</text>
</g>
<!-- 0x59a14ccb1c20&#45;&gt;0x59a14ccb2260 -->
<g id="edge29" class="edge">
<title>0x59a14ccb1c20&#45;&gt;0x59a14ccb2260</title>
<path fill="none" stroke="black" d="M293.74,-653.8C295.93,-642.16 298.87,-626.55 301.37,-613.24"/>
<polygon fill="black" stroke="black" points="304.86,-613.65 303.27,-603.18 297.98,-612.36 304.86,-613.65"/>
</g>
</g>
</svg>
