<?xml version="1.0" encoding="UTF-8" standalone="no"?>
<!DOCTYPE svg PUBLIC "-//W3C//DTD SVG 1.1//EN"
 "http://www.w3.org/Graphics/SVG/1.1/DTD/svg11.dtd">
<!-- Generated by graphviz version 2.43.0 (0)
 -->
<!-- Title: AST Pages: 1 -->
<svg width="823pt" height="364pt"
 viewBox="0.00 0.00 822.50 364.00" xmlns="http://www.w3.org/2000/svg" xmlns:xlink="http://www.w3.org/1999/xlink">
<g id="graph0" class="graph" transform="scale(1 1) rotate(0) translate(4 360)">
<title>AST</title>
<polygon fill="white" stroke="transparent" points="-4,4 -4,-360 818.5,-360 818.5,4 -4,4"/>
<!-- 0x558ad73700c0 -->
<g id="node1" class="node">
<title>0x558ad73700c0</title>
<polygon fill="none" stroke="black" points="379.5,-356 300.5,-356 300.5,-320 379.5,-320 379.5,-356"/>
<text text-anchor="middle" x="340" y="-334.3" font-family="Times,serif" font-size="14.00">Program</text>
</g>
<!-- 0x5040000000d0 -->
<g id="node2" class="node">
<title>0x5040000000d0</title>
<polygon fill="lightblue" stroke="black" points="195,-283 109,-283 109,-247 195,-247 195,-283"/>
<text text-anchor="middle" x="152" y="-261.3" font-family="Times,serif" font-size="14.00">Assign: a </text>
</g>
<!-- 0x558ad73700c0&#45;&gt;0x5040000000d0 -->
<g id="edge2" class="edge">
<title>0x558ad73700c0&#45;&gt;0x5040000000d0</title>
<path fill="none" stroke="black" d="M300.13,-321.94C272.31,-311.44 234.91,-297.31 204.64,-285.88"/>
<polygon fill="black" stroke="black" points="205.68,-282.53 195.09,-282.27 203.21,-289.08 205.68,-282.53"/>
</g>
<!-- 0x503000000a60 -->
<g id="node4" class="node">
<title>0x503000000a60</title>
<polygon fill="none" stroke="black" points="305.5,-283 248.5,-283 248.5,-247 305.5,-247 305.5,-283"/>
<text text-anchor="middle" x="277" y="-261.3" font-family="Times,serif" font-size="14.00">While</text>
</g>
<!-- 0x558ad73700c0&#45;&gt;0x503000000a60 -->
<g id="edge14" class="edge">
<title>0x558ad73700c0&#45;&gt;0x503000000a60</title>
<path fill="none" stroke="black" d="M324.75,-319.81C317.01,-311.09 307.47,-300.34 298.96,-290.75"/>
<polygon fill="black" stroke="black" points="301.37,-288.19 292.11,-283.03 296.13,-292.83 301.37,-288.19"/>
</g>
<!-- 0x5040000002d0 -->
<g id="node16" class="node">
<title>0x5040000002d0</title>
<polygon fill="none" stroke="black" points="480,-283 394,-283 394,-247 480,-247 480,-283"/>
<text text-anchor="middle" x="437" y="-261.3" font-family="Times,serif" font-size="14.00">Condition</text>
</g>
<!-- 0x558ad73700c0&#45;&gt;0x5040000002d0 -->
<g id="edge23" class="edge">
<title>0x558ad73700c0&#45;&gt;0x5040000002d0</title>
<path fill="none" stroke="black" d="M363.48,-319.81C376.11,-310.57 391.86,-299.04 405.53,-289.03"/>
<polygon fill="black" stroke="black" points="407.73,-291.76 413.74,-283.03 403.6,-286.11 407.73,-291.76"/>
</g>
<!-- 0x503000000b80 -->
<g id="node25" class="node">
<title>0x503000000b80</title>
<polygon fill="none" stroke="black" points="587,-283 533,-283 533,-247 587,-247 587,-283"/>
<text text-anchor="middle" x="560" y="-261.3" font-family="Times,serif" font-size="14.00">Print</text>
</g>
<!-- 0x558ad73700c0&#45;&gt;0x503000000b80 -->
<g id="edge27" class="edge">
<title>0x558ad73700c0&#45;&gt;0x503000000b80</title>
<path fill="none" stroke="black" d="M379.59,-324.22C420.41,-311.05 483.57,-290.67 523.3,-277.84"/>
<polygon fill="black" stroke="black" points="524.43,-281.16 532.87,-274.75 522.28,-274.5 524.43,-281.16"/>
</g>
<!-- 0x5020000001b0 -->
<g id="node3" class="node">
<title>0x5020000001b0</title>
<polygon fill="none" stroke="black" points="111.5,-196 24.5,-196 24.5,-160 111.5,-160 111.5,-196"/>
<text text-anchor="middle" x="68" y="-174.3" font-family="Times,serif" font-size="14.00">Num: 100</text>
</g>
<!-- 0x5040000000d0&#45;&gt;0x5020000001b0 -->
<g id="edge1" class="edge">
<title>0x5040000000d0&#45;&gt;0x5020000001b0</title>
<path fill="none" stroke="black" d="M135,-246.8C122.7,-234.36 105.91,-217.36 92.22,-203.5"/>
<polygon fill="black" stroke="black" points="94.49,-200.83 84.97,-196.18 89.51,-205.75 94.49,-200.83"/>
</g>
<!-- 0x5030000009a0 -->
<g id="node5" class="node">
<title>0x5030000009a0</title>
<polygon fill="lightyellow" stroke="black" points="184,-196 130,-196 130,-160 184,-160 184,-196"/>
<text text-anchor="middle" x="157" y="-174.3" font-family="Times,serif" font-size="14.00">&gt;</text>
</g>
<!-- 0x503000000a60&#45;&gt;0x5030000009a0 -->
<g id="edge7" class="edge">
<title>0x503000000a60&#45;&gt;0x5030000009a0</title>
<path fill="none" stroke="black" d="M248.45,-252.59C234.97,-246.55 219.02,-238.43 206,-229 196.05,-221.8 186.32,-212.49 178.19,-203.86"/>
<polygon fill="black" stroke="black" points="180.53,-201.23 171.21,-196.21 175.36,-205.95 180.53,-201.23"/>
<text text-anchor="middle" x="223" y="-217.8" font-family="Times,serif" font-size="14.00" fill="#7f7f7f">cond</text>
</g>
<!-- 0x5030000009d0 -->
<g id="node10" class="node">
<title>0x5030000009d0</title>
<polygon fill="none" stroke="black" points="261,-196 207,-196 207,-160 261,-160 261,-196"/>
<text text-anchor="middle" x="234" y="-174.3" font-family="Times,serif" font-size="14.00">Print</text>
</g>
<!-- 0x503000000a60&#45;&gt;0x5030000009d0 -->
<g id="edge9" class="edge">
<title>0x503000000a60&#45;&gt;0x5030000009d0</title>
<path fill="none" stroke="black" d="M261.71,-246.65C257.5,-241.26 253.21,-235.12 250,-229 246.23,-221.82 243.15,-213.59 240.73,-205.9"/>
<polygon fill="black" stroke="black" points="244.08,-204.88 237.93,-196.25 237.36,-206.83 244.08,-204.88"/>
<text text-anchor="middle" x="267.5" y="-217.8" font-family="Times,serif" font-size="14.00" fill="#7f7f7f">body</text>
</g>
<!-- 0x5040000001d0 -->
<g id="node12" class="node">
<title>0x5040000001d0</title>
<polygon fill="lightblue" stroke="black" points="365,-196 279,-196 279,-160 365,-160 365,-196"/>
<text text-anchor="middle" x="322" y="-174.3" font-family="Times,serif" font-size="14.00">Assign: a </text>
</g>
<!-- 0x503000000a60&#45;&gt;0x5040000001d0 -->
<g id="edge13" class="edge">
<title>0x503000000a60&#45;&gt;0x5040000001d0</title>
<path fill="none" stroke="black" d="M286.11,-246.8C292.45,-234.82 301.03,-218.62 308.21,-205.06"/>
<polygon fill="black" stroke="black" points="311.32,-206.65 312.91,-196.18 305.13,-203.38 311.32,-206.65"/>
<text text-anchor="middle" x="320.5" y="-217.8" font-family="Times,serif" font-size="14.00" fill="#7f7f7f">body</text>
</g>
<!-- 0x503000000970 -->
<g id="node6" class="node">
<title>0x503000000970</title>
<polygon fill="lightyellow" stroke="black" points="102,-109 48,-109 48,-73 102,-73 102,-109"/>
<text text-anchor="middle" x="75" y="-87.3" font-family="Times,serif" font-size="14.00">+</text>
</g>
<!-- 0x5030000009a0&#45;&gt;0x503000000970 -->
<g id="edge5" class="edge">
<title>0x5030000009a0&#45;&gt;0x503000000970</title>
<path fill="none" stroke="black" d="M140.41,-159.8C128.4,-147.36 112.01,-130.36 98.64,-116.5"/>
<polygon fill="black" stroke="black" points="101.03,-113.94 91.57,-109.18 95.99,-118.8 101.03,-113.94"/>
</g>
<!-- 0x502000000210 -->
<g id="node9" class="node">
<title>0x502000000210</title>
<polygon fill="none" stroke="black" points="189.5,-109 120.5,-109 120.5,-73 189.5,-73 189.5,-109"/>
<text text-anchor="middle" x="155" y="-87.3" font-family="Times,serif" font-size="14.00">Num: 0</text>
</g>
<!-- 0x5030000009a0&#45;&gt;0x502000000210 -->
<g id="edge6" class="edge">
<title>0x5030000009a0&#45;&gt;0x502000000210</title>
<path fill="none" stroke="black" d="M156.6,-159.8C156.32,-148.16 155.95,-132.55 155.64,-119.24"/>
<polygon fill="black" stroke="black" points="159.14,-119.09 155.4,-109.18 152.14,-119.26 159.14,-119.09"/>
</g>
<!-- 0x504000000110 -->
<g id="node7" class="node">
<title>0x504000000110</title>
<polygon fill="none" stroke="black" points="58,-36 0,-36 0,0 58,0 58,-36"/>
<text text-anchor="middle" x="29" y="-14.3" font-family="Times,serif" font-size="14.00">Var: a</text>
</g>
<!-- 0x503000000970&#45;&gt;0x504000000110 -->
<g id="edge3" class="edge">
<title>0x503000000970&#45;&gt;0x504000000110</title>
<path fill="none" stroke="black" d="M63.86,-72.81C58.38,-64.35 51.67,-53.98 45.59,-44.61"/>
<polygon fill="black" stroke="black" points="48.41,-42.52 40.03,-36.03 42.53,-46.32 48.41,-42.52"/>
</g>
<!-- 0x5020000001f0 -->
<g id="node8" class="node">
<title>0x5020000001f0</title>
<polygon fill="none" stroke="black" points="145.5,-36 76.5,-36 76.5,0 145.5,0 145.5,-36"/>
<text text-anchor="middle" x="111" y="-14.3" font-family="Times,serif" font-size="14.00">Num: 1</text>
</g>
<!-- 0x503000000970&#45;&gt;0x5020000001f0 -->
<g id="edge4" class="edge">
<title>0x503000000970&#45;&gt;0x5020000001f0</title>
<path fill="none" stroke="black" d="M83.71,-72.81C87.92,-64.53 93.05,-54.41 97.72,-45.19"/>
<polygon fill="black" stroke="black" points="100.96,-46.53 102.37,-36.03 94.72,-43.37 100.96,-46.53"/>
</g>
<!-- 0x504000000150 -->
<g id="node11" class="node">
<title>0x504000000150</title>
<polygon fill="none" stroke="black" points="266,-109 208,-109 208,-73 266,-73 266,-109"/>
<text text-anchor="middle" x="237" y="-87.3" font-family="Times,serif" font-size="14.00">Var: a</text>
</g>
<!-- 0x5030000009d0&#45;&gt;0x504000000150 -->
<g id="edge8" class="edge">
<title>0x5030000009d0&#45;&gt;0x504000000150</title>
<path fill="none" stroke="black" d="M234.61,-159.8C235.02,-148.16 235.57,-132.55 236.04,-119.24"/>
<polygon fill="black" stroke="black" points="239.54,-119.29 236.39,-109.18 232.54,-119.05 239.54,-119.29"/>
</g>
<!-- 0x503000000a00 -->
<g id="node13" class="node">
<title>0x503000000a00</title>
<polygon fill="lightyellow" stroke="black" points="338,-109 284,-109 284,-73 338,-73 338,-109"/>
<text text-anchor="middle" x="311" y="-87.3" font-family="Times,serif" font-size="14.00">&#45;</text>
</g>
<!-- 0x5040000001d0&#45;&gt;0x503000000a00 -->
<g id="edge12" class="edge">
<title>0x5040000001d0&#45;&gt;0x503000000a00</title>
<path fill="none" stroke="black" d="M319.77,-159.8C318.27,-148.16 316.25,-132.55 314.52,-119.24"/>
<polygon fill="black" stroke="black" points="317.98,-118.64 313.22,-109.18 311.04,-119.54 317.98,-118.64"/>
</g>
<!-- 0x504000000190 -->
<g id="node14" class="node">
<title>0x504000000190</title>
<polygon fill="none" stroke="black" points="240,-36 182,-36 182,0 240,0 240,-36"/>
<text text-anchor="middle" x="211" y="-14.3" font-family="Times,serif" font-size="14.00">Var: a</text>
</g>
<!-- 0x503000000a00&#45;&gt;0x504000000190 -->
<g id="edge10" class="edge">
<title>0x503000000a00&#45;&gt;0x504000000190</title>
<path fill="none" stroke="black" d="M287.05,-72.99C274.03,-63.75 257.75,-52.19 243.59,-42.14"/>
<polygon fill="black" stroke="black" points="245.28,-39.05 235.1,-36.11 241.23,-44.76 245.28,-39.05"/>
</g>
<!-- 0x502000000270 -->
<g id="node15" class="node">
<title>0x502000000270</title>
<polygon fill="none" stroke="black" points="327.5,-36 258.5,-36 258.5,0 327.5,0 327.5,-36"/>
<text text-anchor="middle" x="293" y="-14.3" font-family="Times,serif" font-size="14.00">Num: 1</text>
</g>
<!-- 0x503000000a00&#45;&gt;0x502000000270 -->
<g id="edge11" class="edge">
<title>0x503000000a00&#45;&gt;0x502000000270</title>
<path fill="none" stroke="black" d="M306.64,-72.81C304.59,-64.7 302.09,-54.84 299.79,-45.78"/>
<polygon fill="black" stroke="black" points="303.17,-44.86 297.32,-36.03 296.38,-46.58 303.17,-44.86"/>
</g>
<!-- 0x502000000370 -->
<g id="node17" class="node">
<title>0x502000000370</title>
<polygon fill="none" stroke="black" points="530,-196 476,-196 476,-160 530,-160 530,-196"/>
<text text-anchor="middle" x="503" y="-174.3" font-family="Times,serif" font-size="14.00">IF</text>
</g>
<!-- 0x5040000002d0&#45;&gt;0x502000000370 -->
<g id="edge15" class="edge">
<title>0x5040000002d0&#45;&gt;0x502000000370</title>
<path fill="none" stroke="black" d="M450.36,-246.8C459.84,-234.59 472.72,-217.99 483.37,-204.28"/>
<polygon fill="black" stroke="black" points="486.3,-206.22 489.66,-196.18 480.77,-201.93 486.3,-206.22"/>
</g>
<!-- 0x503000000a90 -->
<g id="node18" class="node">
<title>0x503000000a90</title>
<polygon fill="lightyellow" stroke="black" points="474,-109 420,-109 420,-73 474,-73 474,-109"/>
<text text-anchor="middle" x="447" y="-87.3" font-family="Times,serif" font-size="14.00">&lt;=</text>
</g>
<!-- 0x502000000370&#45;&gt;0x503000000a90 -->
<g id="edge18" class="edge">
<title>0x502000000370&#45;&gt;0x503000000a90</title>
<path fill="none" stroke="black" d="M491.67,-159.8C483.7,-147.7 472.89,-131.3 463.91,-117.67"/>
<polygon fill="black" stroke="black" points="466.74,-115.6 458.32,-109.18 460.89,-119.45 466.74,-115.6"/>
<text text-anchor="middle" x="496" y="-130.8" font-family="Times,serif" font-size="14.00" fill="#7f7f7f">cond</text>
</g>
<!-- 0x504000000250 -->
<g id="node21" class="node">
<title>0x504000000250</title>
<polygon fill="lightblue" stroke="black" points="578,-109 492,-109 492,-73 578,-73 578,-109"/>
<text text-anchor="middle" x="535" y="-87.3" font-family="Times,serif" font-size="14.00">Assign: b </text>
</g>
<!-- 0x502000000370&#45;&gt;0x504000000250 -->
<g id="edge20" class="edge">
<title>0x502000000370&#45;&gt;0x504000000250</title>
<path fill="none" stroke="black" d="M509.48,-159.8C513.9,-148.05 519.85,-132.24 524.89,-118.84"/>
<polygon fill="black" stroke="black" points="528.29,-119.77 528.53,-109.18 521.74,-117.3 528.29,-119.77"/>
<text text-anchor="middle" x="538.5" y="-130.8" font-family="Times,serif" font-size="14.00" fill="#7f7f7f">body</text>
</g>
<!-- 0x503000000ac0 -->
<g id="node23" class="node">
<title>0x503000000ac0</title>
<polygon fill="none" stroke="black" points="650,-109 596,-109 596,-73 650,-73 650,-109"/>
<text text-anchor="middle" x="623" y="-87.3" font-family="Times,serif" font-size="14.00">Print</text>
</g>
<!-- 0x502000000370&#45;&gt;0x503000000ac0 -->
<g id="edge22" class="edge">
<title>0x502000000370&#45;&gt;0x503000000ac0</title>
<path fill="none" stroke="black" d="M530.1,-161.27C539.71,-155.46 550.49,-148.66 560,-142 571.76,-133.77 584.23,-124.08 594.95,-115.44"/>
<polygon fill="black" stroke="black" points="597.22,-118.11 602.76,-109.08 592.8,-112.68 597.22,-118.11"/>
<text text-anchor="middle" x="597.5" y="-130.8" font-family="Times,serif" font-size="14.00" fill="#7f7f7f">body</text>
</g>
<!-- 0x504000000210 -->
<g id="node19" class="node">
<title>0x504000000210</title>
<polygon fill="none" stroke="black" points="404,-36 346,-36 346,0 404,0 404,-36"/>
<text text-anchor="middle" x="375" y="-14.3" font-family="Times,serif" font-size="14.00">Var: a</text>
</g>
<!-- 0x503000000a90&#45;&gt;0x504000000210 -->
<g id="edge16" class="edge">
<title>0x503000000a90&#45;&gt;0x504000000210</title>
<path fill="none" stroke="black" d="M429.57,-72.81C420.55,-63.92 409.39,-52.91 399.51,-43.17"/>
<polygon fill="black" stroke="black" points="401.85,-40.56 392.27,-36.03 396.93,-45.54 401.85,-40.56"/>
</g>
<!-- 0x5020000002d0 -->
<g id="node20" class="node">
<title>0x5020000002d0</title>
<polygon fill="none" stroke="black" points="491.5,-36 422.5,-36 422.5,0 491.5,0 491.5,-36"/>
<text text-anchor="middle" x="457" y="-14.3" font-family="Times,serif" font-size="14.00">Num: 0</text>
</g>
<!-- 0x503000000a90&#45;&gt;0x5020000002d0 -->
<g id="edge17" class="edge">
<title>0x503000000a90&#45;&gt;0x5020000002d0</title>
<path fill="none" stroke="black" d="M449.42,-72.81C450.55,-64.79 451.92,-55.05 453.19,-46.07"/>
<polygon fill="black" stroke="black" points="456.67,-46.42 454.6,-36.03 449.74,-45.44 456.67,-46.42"/>
</g>
<!-- 0x5020000002f0 -->
<g id="node22" class="node">
<title>0x5020000002f0</title>
<polygon fill="none" stroke="black" points="596.5,-36 509.5,-36 509.5,0 596.5,0 596.5,-36"/>
<text text-anchor="middle" x="553" y="-14.3" font-family="Times,serif" font-size="14.00">Num: 200</text>
</g>
<!-- 0x504000000250&#45;&gt;0x5020000002f0 -->
<g id="edge19" class="edge">
<title>0x504000000250&#45;&gt;0x5020000002f0</title>
<path fill="none" stroke="black" d="M539.36,-72.81C541.41,-64.7 543.91,-54.84 546.21,-45.78"/>
<polygon fill="black" stroke="black" points="549.62,-46.58 548.68,-36.03 542.83,-44.86 549.62,-46.58"/>
</g>
<!-- 0x504000000290 -->
<g id="node24" class="node">
<title>0x504000000290</title>
<polygon fill="none" stroke="black" points="673.5,-36 614.5,-36 614.5,0 673.5,0 673.5,-36"/>
<text text-anchor="middle" x="644" y="-14.3" font-family="Times,serif" font-size="14.00">Var: b</text>
</g>
<!-- 0x503000000ac0&#45;&gt;0x504000000290 -->
<g id="edge21" class="edge">
<title>0x503000000ac0&#45;&gt;0x504000000290</title>
<path fill="none" stroke="black" d="M628.08,-72.81C630.48,-64.7 633.4,-54.84 636.08,-45.78"/>
<polygon fill="black" stroke="black" points="639.48,-46.61 638.96,-36.03 632.77,-44.63 639.48,-46.61"/>
</g>
<!-- 0x503000000b50 -->
<g id="node26" class="node">
<title>0x503000000b50</title>
<polygon fill="lightyellow" stroke="black" points="725,-196 671,-196 671,-160 725,-160 725,-196"/>
<text text-anchor="middle" x="698" y="-174.3" font-family="Times,serif" font-size="14.00">*</text>
</g>
<!-- 0x503000000b80&#45;&gt;0x503000000b50 -->
<g id="edge26" class="edge">
<title>0x503000000b80&#45;&gt;0x503000000b50</title>
<path fill="none" stroke="black" d="M587.26,-247.21C608.72,-233.99 638.79,-215.47 662.19,-201.06"/>
<polygon fill="black" stroke="black" points="664.11,-203.98 670.79,-195.76 660.44,-198.02 664.11,-203.98"/>
</g>
<!-- 0x504000000310 -->
<g id="node27" class="node">
<title>0x504000000310</title>
<polygon fill="none" stroke="black" points="727.5,-109 668.5,-109 668.5,-73 727.5,-73 727.5,-109"/>
<text text-anchor="middle" x="698" y="-87.3" font-family="Times,serif" font-size="14.00">Var: b</text>
</g>
<!-- 0x503000000b50&#45;&gt;0x504000000310 -->
<g id="edge24" class="edge">
<title>0x503000000b50&#45;&gt;0x504000000310</title>
<path fill="none" stroke="black" d="M698,-159.8C698,-148.16 698,-132.55 698,-119.24"/>
<polygon fill="black" stroke="black" points="701.5,-119.18 698,-109.18 694.5,-119.18 701.5,-119.18"/>
</g>
<!-- 0x502000000390 -->
<g id="node28" class="node">
<title>0x502000000390</title>
<polygon fill="none" stroke="black" points="814.5,-109 745.5,-109 745.5,-73 814.5,-73 814.5,-109"/>
<text text-anchor="middle" x="780" y="-87.3" font-family="Times,serif" font-size="14.00">Num: 2</text>
</g>
<!-- 0x503000000b50&#45;&gt;0x502000000390 -->
<g id="edge25" class="edge">
<title>0x503000000b50&#45;&gt;0x502000000390</title>
<path fill="none" stroke="black" d="M714.59,-159.8C726.6,-147.36 742.99,-130.36 756.36,-116.5"/>
<polygon fill="black" stroke="black" points="759.01,-118.8 763.43,-109.18 753.97,-113.94 759.01,-118.8"/>
</g>
</g>
</svg>
