<?xml version="1.0" encoding="UTF-8" standalone="no"?>
<!DOCTYPE svg PUBLIC "-//W3C//DTD SVG 1.1//EN"
 "http://www.w3.org/Graphics/SVG/1.1/DTD/svg11.dtd">
<!-- Generated by graphviz version 2.42.4 (0)
 -->
<!-- Title: AST Pages: 1 -->
<svg width="563pt" height="729pt"
 viewBox="0.00 0.00 563.00 729.00" xmlns="http://www.w3.org/2000/svg" xmlns:xlink="http://www.w3.org/1999/xlink">
<g id="graph0" class="graph" transform="scale(1 1) rotate(0) translate(4 725)">
<title>AST</title>
<polygon fill="white" stroke="transparent" points="-4,4 -4,-725 559,-725 559,4 -4,4"/>
<!-- Program -->
<g id="node1" class="node">
<title>Program</title>
<polygon fill="none" stroke="black" points="213,-721 148,-721 148,-685 213,-685 213,-721"/>
<text text-anchor="middle" x="180.5" y="-699.3" font-family="Times,serif" font-size="14.00">Program</text>
</g>
<!-- 0x5ac53ed5e330 -->
<g id="node2" class="node">
<title>0x5ac53ed5e330</title>
<polygon fill="lightblue" stroke="black" points="66,-648 1,-648 1,-612 66,-612 66,-648"/>
<text text-anchor="middle" x="33.5" y="-626.3" font-family="Times,serif" font-size="14.00">Assign: i</text>
</g>
<!-- Program&#45;&gt;0x5ac53ed5e330 -->
<g id="edge2" class="edge">
<title>Program&#45;&gt;0x5ac53ed5e330</title>
<path fill="none" stroke="black" d="M147.88,-686.24C126.47,-675.9 98.27,-662.28 75.23,-651.16"/>
<polygon fill="black" stroke="black" points="76.56,-647.91 66.03,-646.71 73.52,-654.21 76.56,-647.91"/>
</g>
<!-- 0x5ac53ed5e940 -->
<g id="node4" class="node">
<title>0x5ac53ed5e940</title>
<polygon fill="lightblue" stroke="black" points="180,-648 115,-648 115,-612 180,-612 180,-648"/>
<text text-anchor="middle" x="147.5" y="-626.3" font-family="Times,serif" font-size="14.00">Assign: j</text>
</g>
<!-- Program&#45;&gt;0x5ac53ed5e940 -->
<g id="edge4" class="edge">
<title>Program&#45;&gt;0x5ac53ed5e940</title>
<path fill="none" stroke="black" d="M172.51,-684.81C168.66,-676.53 163.96,-666.41 159.67,-657.19"/>
<polygon fill="black" stroke="black" points="162.8,-655.62 155.41,-648.03 156.46,-658.57 162.8,-655.62"/>
</g>
<!-- 0x5ac53ed5edb0 -->
<g id="node6" class="node">
<title>0x5ac53ed5edb0</title>
<polygon fill="none" stroke="black" points="268.5,-648 214.5,-648 214.5,-612 268.5,-612 268.5,-648"/>
<text text-anchor="middle" x="241.5" y="-626.3" font-family="Times,serif" font-size="14.00">While</text>
</g>
<!-- Program&#45;&gt;0x5ac53ed5edb0 -->
<g id="edge32" class="edge">
<title>Program&#45;&gt;0x5ac53ed5edb0</title>
<path fill="none" stroke="black" d="M195.27,-684.81C202.76,-676.09 212,-665.34 220.24,-655.75"/>
<polygon fill="black" stroke="black" points="223.01,-657.89 226.87,-648.03 217.7,-653.33 223.01,-657.89"/>
</g>
<!-- 0x5ac53ed5e980 -->
<g id="node34" class="node">
<title>0x5ac53ed5e980</title>
<polygon fill="none" stroke="black" points="393.5,-648 339.5,-648 339.5,-612 393.5,-612 393.5,-648"/>
<text text-anchor="middle" x="366.5" y="-626.3" font-family="Times,serif" font-size="14.00">Print</text>
</g>
<!-- Program&#45;&gt;0x5ac53ed5e980 -->
<g id="edge34" class="edge">
<title>Program&#45;&gt;0x5ac53ed5e980</title>
<path fill="none" stroke="black" d="M213.32,-689.47C245.98,-677.01 295.97,-657.92 329.89,-644.97"/>
<polygon fill="black" stroke="black" points="331.34,-648.17 339.44,-641.33 328.84,-641.63 331.34,-648.17"/>
</g>
<!-- 0x5ac53ed5e8e0 -->
<g id="node3" class="node">
<title>0x5ac53ed5e8e0</title>
<polygon fill="none" stroke="black" points="59,-561 0,-561 0,-525 59,-525 59,-561"/>
<text text-anchor="middle" x="29.5" y="-539.3" font-family="Times,serif" font-size="14.00">Num: 4</text>
</g>
<!-- 0x5ac53ed5e330&#45;&gt;0x5ac53ed5e8e0 -->
<g id="edge1" class="edge">
<title>0x5ac53ed5e330&#45;&gt;0x5ac53ed5e8e0</title>
<path fill="none" stroke="black" d="M32.69,-611.8C32.14,-600.16 31.41,-584.55 30.78,-571.24"/>
<polygon fill="black" stroke="black" points="34.27,-571 30.31,-561.18 27.28,-571.33 34.27,-571"/>
</g>
<!-- 0x5ac53ed5e920 -->
<g id="node5" class="node">
<title>0x5ac53ed5e920</title>
<polygon fill="none" stroke="black" points="136,-561 77,-561 77,-525 136,-525 136,-561"/>
<text text-anchor="middle" x="106.5" y="-539.3" font-family="Times,serif" font-size="14.00">Num: 0</text>
</g>
<!-- 0x5ac53ed5e940&#45;&gt;0x5ac53ed5e920 -->
<g id="edge3" class="edge">
<title>0x5ac53ed5e940&#45;&gt;0x5ac53ed5e920</title>
<path fill="none" stroke="black" d="M139.2,-611.8C133.48,-599.93 125.76,-583.93 119.26,-570.45"/>
<polygon fill="black" stroke="black" points="122.28,-568.66 114.78,-561.18 115.98,-571.7 122.28,-568.66"/>
</g>
<!-- 0x5ac53ed5e9d0 -->
<g id="node7" class="node">
<title>0x5ac53ed5e9d0</title>
<polygon fill="lightyellow" stroke="black" points="208.5,-561 154.5,-561 154.5,-525 208.5,-525 208.5,-561"/>
<text text-anchor="middle" x="181.5" y="-539.3" font-family="Times,serif" font-size="14.00">&gt;</text>
</g>
<!-- 0x5ac53ed5edb0&#45;&gt;0x5ac53ed5e9d0 -->
<g id="edge7" class="edge">
<title>0x5ac53ed5edb0&#45;&gt;0x5ac53ed5e9d0</title>
<path fill="none" stroke="black" d="M229.26,-611.93C225.19,-606.24 220.64,-599.85 216.5,-594 210.9,-586.08 204.83,-577.43 199.34,-569.59"/>
<polygon fill="black" stroke="black" points="202.04,-567.34 193.45,-561.15 196.31,-571.35 202.04,-567.34"/>
<text text-anchor="middle" x="230" y="-582.8" font-family="Times,serif" font-size="14.00" fill="#7f7f7f">cond</text>
</g>
<!-- 0x5ac53ed5ec80 -->
<g id="node10" class="node">
<title>0x5ac53ed5ec80</title>
<polygon fill="none" stroke="black" points="280.5,-561 226.5,-561 226.5,-525 280.5,-525 280.5,-561"/>
<text text-anchor="middle" x="253.5" y="-539.3" font-family="Times,serif" font-size="14.00">While</text>
</g>
<!-- 0x5ac53ed5edb0&#45;&gt;0x5ac53ed5ec80 -->
<g id="edge27" class="edge">
<title>0x5ac53ed5edb0&#45;&gt;0x5ac53ed5ec80</title>
<path fill="none" stroke="black" d="M243.93,-611.8C245.57,-600.16 247.78,-584.55 249.65,-571.24"/>
<polygon fill="black" stroke="black" points="253.14,-571.57 251.08,-561.18 246.21,-570.59 253.14,-571.57"/>
<text text-anchor="middle" x="262.5" y="-582.8" font-family="Times,serif" font-size="14.00" fill="#7f7f7f">body</text>
</g>
<!-- 0x5ac53ed5ee50 -->
<g id="node30" class="node">
<title>0x5ac53ed5ee50</title>
<polygon fill="lightblue" stroke="black" points="364,-561 299,-561 299,-525 364,-525 364,-561"/>
<text text-anchor="middle" x="331.5" y="-539.3" font-family="Times,serif" font-size="14.00">Assign: i</text>
</g>
<!-- 0x5ac53ed5edb0&#45;&gt;0x5ac53ed5ee50 -->
<g id="edge31" class="edge">
<title>0x5ac53ed5edb0&#45;&gt;0x5ac53ed5ee50</title>
<path fill="none" stroke="black" d="M261.09,-611.72C267.35,-606.12 274.26,-599.85 280.5,-594 289.22,-585.82 298.62,-576.7 306.93,-568.52"/>
<polygon fill="black" stroke="black" points="309.56,-570.84 314.22,-561.32 304.64,-565.86 309.56,-570.84"/>
<text text-anchor="middle" x="310.5" y="-582.8" font-family="Times,serif" font-size="14.00" fill="#7f7f7f">body</text>
</g>
<!-- 0x5ac53ed5e9a0 -->
<g id="node8" class="node">
<title>0x5ac53ed5e9a0</title>
<polygon fill="none" stroke="black" points="91.5,-474 37.5,-474 37.5,-438 91.5,-438 91.5,-474"/>
<text text-anchor="middle" x="64.5" y="-452.3" font-family="Times,serif" font-size="14.00">Var: i</text>
</g>
<!-- 0x5ac53ed5e9d0&#45;&gt;0x5ac53ed5e9a0 -->
<g id="edge5" class="edge">
<title>0x5ac53ed5e9d0&#45;&gt;0x5ac53ed5e9a0</title>
<path fill="none" stroke="black" d="M157.82,-524.8C140.14,-511.95 115.78,-494.26 96.39,-480.17"/>
<polygon fill="black" stroke="black" points="98.29,-477.22 88.14,-474.18 94.17,-482.88 98.29,-477.22"/>
</g>
<!-- 0x5ac53ed5e900 -->
<g id="node9" class="node">
<title>0x5ac53ed5e900</title>
<polygon fill="none" stroke="black" points="169,-474 110,-474 110,-438 169,-438 169,-474"/>
<text text-anchor="middle" x="139.5" y="-452.3" font-family="Times,serif" font-size="14.00">Num: 0</text>
</g>
<!-- 0x5ac53ed5e9d0&#45;&gt;0x5ac53ed5e900 -->
<g id="edge6" class="edge">
<title>0x5ac53ed5e9d0&#45;&gt;0x5ac53ed5e900</title>
<path fill="none" stroke="black" d="M173,-524.8C167.14,-512.93 159.23,-496.93 152.57,-483.45"/>
<polygon fill="black" stroke="black" points="155.55,-481.59 147.99,-474.18 149.28,-484.69 155.55,-481.59"/>
</g>
<!-- 0x5ac53ed5ea50 -->
<g id="node11" class="node">
<title>0x5ac53ed5ea50</title>
<polygon fill="lightyellow" stroke="black" points="241.5,-474 187.5,-474 187.5,-438 241.5,-438 241.5,-474"/>
<text text-anchor="middle" x="214.5" y="-452.3" font-family="Times,serif" font-size="14.00">&gt;</text>
</g>
<!-- 0x5ac53ed5ec80&#45;&gt;0x5ac53ed5ea50 -->
<g id="edge10" class="edge">
<title>0x5ac53ed5ec80&#45;&gt;0x5ac53ed5ea50</title>
<path fill="none" stroke="black" d="M245.07,-524.97C242.29,-519.28 239.22,-512.89 236.5,-507 232.97,-499.37 229.25,-491.04 225.89,-483.4"/>
<polygon fill="black" stroke="black" points="229.08,-481.96 221.88,-474.2 222.67,-484.76 229.08,-481.96"/>
<text text-anchor="middle" x="250" y="-495.8" font-family="Times,serif" font-size="14.00" fill="#7f7f7f">cond</text>
</g>
<!-- 0x5ac53ed5ec40 -->
<g id="node14" class="node">
<title>0x5ac53ed5ec40</title>
<polygon fill="lightblue" stroke="black" points="325,-474 260,-474 260,-438 325,-438 325,-474"/>
<text text-anchor="middle" x="292.5" y="-452.3" font-family="Times,serif" font-size="14.00">Assign: j</text>
</g>
<!-- 0x5ac53ed5ec80&#45;&gt;0x5ac53ed5ec40 -->
<g id="edge22" class="edge">
<title>0x5ac53ed5ec80&#45;&gt;0x5ac53ed5ec40</title>
<path fill="none" stroke="black" d="M261.39,-524.8C266.84,-512.93 274.18,-496.93 280.36,-483.45"/>
<polygon fill="black" stroke="black" points="283.63,-484.72 284.62,-474.18 277.27,-481.8 283.63,-484.72"/>
<text text-anchor="middle" x="289.5" y="-495.8" font-family="Times,serif" font-size="14.00" fill="#7f7f7f">body</text>
</g>
<!-- 0x5ac53ed5ed20 -->
<g id="node26" class="node">
<title>0x5ac53ed5ed20</title>
<polygon fill="lightblue" stroke="black" points="408,-474 343,-474 343,-438 408,-438 408,-474"/>
<text text-anchor="middle" x="375.5" y="-452.3" font-family="Times,serif" font-size="14.00">Assign: i</text>
</g>
<!-- 0x5ac53ed5ec80&#45;&gt;0x5ac53ed5ed20 -->
<g id="edge26" class="edge">
<title>0x5ac53ed5ec80&#45;&gt;0x5ac53ed5ed20</title>
<path fill="none" stroke="black" d="M280.62,-524.86C289.28,-519.27 298.86,-512.97 307.5,-507 319.92,-498.42 333.35,-488.65 344.97,-480.04"/>
<polygon fill="black" stroke="black" points="347.14,-482.78 353.07,-474 342.96,-477.17 347.14,-482.78"/>
<text text-anchor="middle" x="342.5" y="-495.8" font-family="Times,serif" font-size="14.00" fill="#7f7f7f">body</text>
</g>
<!-- 0x5ac53ed5ea00 -->
<g id="node12" class="node">
<title>0x5ac53ed5ea00</title>
<polygon fill="none" stroke="black" points="167.5,-401 113.5,-401 113.5,-365 167.5,-365 167.5,-401"/>
<text text-anchor="middle" x="140.5" y="-379.3" font-family="Times,serif" font-size="14.00">Var: i</text>
</g>
<!-- 0x5ac53ed5ea50&#45;&gt;0x5ac53ed5ea00 -->
<g id="edge8" class="edge">
<title>0x5ac53ed5ea50&#45;&gt;0x5ac53ed5ea00</title>
<path fill="none" stroke="black" d="M196.59,-437.81C187.32,-428.92 175.84,-417.91 165.69,-408.17"/>
<polygon fill="black" stroke="black" points="167.89,-405.43 158.25,-401.03 163.04,-410.48 167.89,-405.43"/>
</g>
<!-- 0x5ac53ed5ea30 -->
<g id="node13" class="node">
<title>0x5ac53ed5ea30</title>
<polygon fill="none" stroke="black" points="245,-401 186,-401 186,-365 245,-365 245,-401"/>
<text text-anchor="middle" x="215.5" y="-379.3" font-family="Times,serif" font-size="14.00">Num: 2</text>
</g>
<!-- 0x5ac53ed5ea50&#45;&gt;0x5ac53ed5ea30 -->
<g id="edge9" class="edge">
<title>0x5ac53ed5ea50&#45;&gt;0x5ac53ed5ea30</title>
<path fill="none" stroke="black" d="M214.74,-437.81C214.86,-429.79 214.99,-420.05 215.12,-411.07"/>
<polygon fill="black" stroke="black" points="218.62,-411.08 215.26,-401.03 211.62,-410.98 218.62,-411.08"/>
</g>
<!-- 0x5ac53ed5ec10 -->
<g id="node15" class="node">
<title>0x5ac53ed5ec10</title>
<polygon fill="lightyellow" stroke="black" points="319.5,-401 265.5,-401 265.5,-365 319.5,-365 319.5,-401"/>
<text text-anchor="middle" x="292.5" y="-379.3" font-family="Times,serif" font-size="14.00">+</text>
</g>
<!-- 0x5ac53ed5ec40&#45;&gt;0x5ac53ed5ec10 -->
<g id="edge21" class="edge">
<title>0x5ac53ed5ec40&#45;&gt;0x5ac53ed5ec10</title>
<path fill="none" stroke="black" d="M292.5,-437.81C292.5,-429.79 292.5,-420.05 292.5,-411.07"/>
<polygon fill="black" stroke="black" points="296,-411.03 292.5,-401.03 289,-411.03 296,-411.03"/>
</g>
<!-- 0x5ac53ed5ebc0 -->
<g id="node16" class="node">
<title>0x5ac53ed5ebc0</title>
<polygon fill="lightyellow" stroke="black" points="246.5,-328 192.5,-328 192.5,-292 246.5,-292 246.5,-328"/>
<text text-anchor="middle" x="219.5" y="-306.3" font-family="Times,serif" font-size="14.00">&#45;</text>
</g>
<!-- 0x5ac53ed5ec10&#45;&gt;0x5ac53ed5ebc0 -->
<g id="edge19" class="edge">
<title>0x5ac53ed5ec10&#45;&gt;0x5ac53ed5ebc0</title>
<path fill="none" stroke="black" d="M274.83,-364.81C265.68,-355.92 254.36,-344.91 244.35,-335.17"/>
<polygon fill="black" stroke="black" points="246.62,-332.49 237.01,-328.03 241.74,-337.51 246.62,-332.49"/>
</g>
<!-- 0x5ac53ed5ebf0 -->
<g id="node25" class="node">
<title>0x5ac53ed5ebf0</title>
<polygon fill="none" stroke="black" points="324,-328 265,-328 265,-292 324,-292 324,-328"/>
<text text-anchor="middle" x="294.5" y="-306.3" font-family="Times,serif" font-size="14.00">Num: 1</text>
</g>
<!-- 0x5ac53ed5ec10&#45;&gt;0x5ac53ed5ebf0 -->
<g id="edge20" class="edge">
<title>0x5ac53ed5ec10&#45;&gt;0x5ac53ed5ebf0</title>
<path fill="none" stroke="black" d="M292.98,-364.81C293.21,-356.79 293.48,-347.05 293.74,-338.07"/>
<polygon fill="black" stroke="black" points="297.24,-338.12 294.02,-328.03 290.24,-337.93 297.24,-338.12"/>
</g>
<!-- 0x5ac53ed5eb70 -->
<g id="node17" class="node">
<title>0x5ac53ed5eb70</title>
<polygon fill="lightyellow" stroke="black" points="209.5,-255 155.5,-255 155.5,-219 209.5,-219 209.5,-255"/>
<text text-anchor="middle" x="182.5" y="-233.3" font-family="Times,serif" font-size="14.00">+</text>
</g>
<!-- 0x5ac53ed5ebc0&#45;&gt;0x5ac53ed5eb70 -->
<g id="edge17" class="edge">
<title>0x5ac53ed5ebc0&#45;&gt;0x5ac53ed5eb70</title>
<path fill="none" stroke="black" d="M210.54,-291.81C206.18,-283.44 200.84,-273.2 196,-263.9"/>
<polygon fill="black" stroke="black" points="199.1,-262.28 191.37,-255.03 192.89,-265.51 199.1,-262.28"/>
</g>
<!-- 0x5ac53ed5eba0 -->
<g id="node24" class="node">
<title>0x5ac53ed5eba0</title>
<polygon fill="none" stroke="black" points="287,-255 228,-255 228,-219 287,-219 287,-255"/>
<text text-anchor="middle" x="257.5" y="-233.3" font-family="Times,serif" font-size="14.00">Num: 1</text>
</g>
<!-- 0x5ac53ed5ebc0&#45;&gt;0x5ac53ed5eba0 -->
<g id="edge18" class="edge">
<title>0x5ac53ed5ebc0&#45;&gt;0x5ac53ed5eba0</title>
<path fill="none" stroke="black" d="M228.7,-291.81C233.18,-283.44 238.66,-273.2 243.64,-263.9"/>
<polygon fill="black" stroke="black" points="246.75,-265.5 248.39,-255.03 240.58,-262.19 246.75,-265.5"/>
</g>
<!-- 0x5ac53ed5eb20 -->
<g id="node18" class="node">
<title>0x5ac53ed5eb20</title>
<polygon fill="lightyellow" stroke="black" points="172.5,-182 118.5,-182 118.5,-146 172.5,-146 172.5,-182"/>
<text text-anchor="middle" x="145.5" y="-160.3" font-family="Times,serif" font-size="14.00">&#45;</text>
</g>
<!-- 0x5ac53ed5eb70&#45;&gt;0x5ac53ed5eb20 -->
<g id="edge15" class="edge">
<title>0x5ac53ed5eb70&#45;&gt;0x5ac53ed5eb20</title>
<path fill="none" stroke="black" d="M173.54,-218.81C169.18,-210.44 163.84,-200.2 159,-190.9"/>
<polygon fill="black" stroke="black" points="162.1,-189.28 154.37,-182.03 155.89,-192.51 162.1,-189.28"/>
</g>
<!-- 0x5ac53ed5eb50 -->
<g id="node23" class="node">
<title>0x5ac53ed5eb50</title>
<polygon fill="none" stroke="black" points="250,-182 191,-182 191,-146 250,-146 250,-182"/>
<text text-anchor="middle" x="220.5" y="-160.3" font-family="Times,serif" font-size="14.00">Num: 1</text>
</g>
<!-- 0x5ac53ed5eb70&#45;&gt;0x5ac53ed5eb50 -->
<g id="edge16" class="edge">
<title>0x5ac53ed5eb70&#45;&gt;0x5ac53ed5eb50</title>
<path fill="none" stroke="black" d="M191.7,-218.81C196.18,-210.44 201.66,-200.2 206.64,-190.9"/>
<polygon fill="black" stroke="black" points="209.75,-192.5 211.39,-182.03 203.58,-189.19 209.75,-192.5"/>
</g>
<!-- 0x5ac53ed5ead0 -->
<g id="node19" class="node">
<title>0x5ac53ed5ead0</title>
<polygon fill="lightyellow" stroke="black" points="135.5,-109 81.5,-109 81.5,-73 135.5,-73 135.5,-109"/>
<text text-anchor="middle" x="108.5" y="-87.3" font-family="Times,serif" font-size="14.00">+</text>
</g>
<!-- 0x5ac53ed5eb20&#45;&gt;0x5ac53ed5ead0 -->
<g id="edge13" class="edge">
<title>0x5ac53ed5eb20&#45;&gt;0x5ac53ed5ead0</title>
<path fill="none" stroke="black" d="M136.54,-145.81C132.18,-137.44 126.84,-127.2 122,-117.9"/>
<polygon fill="black" stroke="black" points="125.1,-116.28 117.37,-109.03 118.89,-119.51 125.1,-116.28"/>
</g>
<!-- 0x5ac53ed5eb00 -->
<g id="node22" class="node">
<title>0x5ac53ed5eb00</title>
<polygon fill="none" stroke="black" points="213,-109 154,-109 154,-73 213,-73 213,-109"/>
<text text-anchor="middle" x="183.5" y="-87.3" font-family="Times,serif" font-size="14.00">Num: 1</text>
</g>
<!-- 0x5ac53ed5eb20&#45;&gt;0x5ac53ed5eb00 -->
<g id="edge14" class="edge">
<title>0x5ac53ed5eb20&#45;&gt;0x5ac53ed5eb00</title>
<path fill="none" stroke="black" d="M154.7,-145.81C159.18,-137.44 164.66,-127.2 169.64,-117.9"/>
<polygon fill="black" stroke="black" points="172.75,-119.5 174.39,-109.03 166.58,-116.19 172.75,-119.5"/>
</g>
<!-- 0x5ac53ed5ea80 -->
<g id="node20" class="node">
<title>0x5ac53ed5ea80</title>
<polygon fill="none" stroke="black" points="98.5,-36 44.5,-36 44.5,0 98.5,0 98.5,-36"/>
<text text-anchor="middle" x="71.5" y="-14.3" font-family="Times,serif" font-size="14.00">Var: j</text>
</g>
<!-- 0x5ac53ed5ead0&#45;&gt;0x5ac53ed5ea80 -->
<g id="edge11" class="edge">
<title>0x5ac53ed5ead0&#45;&gt;0x5ac53ed5ea80</title>
<path fill="none" stroke="black" d="M99.54,-72.81C95.18,-64.44 89.84,-54.2 85,-44.9"/>
<polygon fill="black" stroke="black" points="88.1,-43.28 80.37,-36.03 81.89,-46.51 88.1,-43.28"/>
</g>
<!-- 0x5ac53ed5eab0 -->
<g id="node21" class="node">
<title>0x5ac53ed5eab0</title>
<polygon fill="none" stroke="black" points="176,-36 117,-36 117,0 176,0 176,-36"/>
<text text-anchor="middle" x="146.5" y="-14.3" font-family="Times,serif" font-size="14.00">Num: 1</text>
</g>
<!-- 0x5ac53ed5ead0&#45;&gt;0x5ac53ed5eab0 -->
<g id="edge12" class="edge">
<title>0x5ac53ed5ead0&#45;&gt;0x5ac53ed5eab0</title>
<path fill="none" stroke="black" d="M117.7,-72.81C122.18,-64.44 127.66,-54.2 132.64,-44.9"/>
<polygon fill="black" stroke="black" points="135.75,-46.5 137.39,-36.03 129.58,-43.19 135.75,-46.5"/>
</g>
<!-- 0x5ac53ed5ecf0 -->
<g id="node27" class="node">
<title>0x5ac53ed5ecf0</title>
<polygon fill="lightyellow" stroke="black" points="402.5,-401 348.5,-401 348.5,-365 402.5,-365 402.5,-401"/>
<text text-anchor="middle" x="375.5" y="-379.3" font-family="Times,serif" font-size="14.00">&#45;</text>
</g>
<!-- 0x5ac53ed5ed20&#45;&gt;0x5ac53ed5ecf0 -->
<g id="edge25" class="edge">
<title>0x5ac53ed5ed20&#45;&gt;0x5ac53ed5ecf0</title>
<path fill="none" stroke="black" d="M375.5,-437.81C375.5,-429.79 375.5,-420.05 375.5,-411.07"/>
<polygon fill="black" stroke="black" points="379,-411.03 375.5,-401.03 372,-411.03 379,-411.03"/>
</g>
<!-- 0x5ac53ed5eca0 -->
<g id="node28" class="node">
<title>0x5ac53ed5eca0</title>
<polygon fill="none" stroke="black" points="400.5,-328 346.5,-328 346.5,-292 400.5,-292 400.5,-328"/>
<text text-anchor="middle" x="373.5" y="-306.3" font-family="Times,serif" font-size="14.00">Var: i</text>
</g>
<!-- 0x5ac53ed5ecf0&#45;&gt;0x5ac53ed5eca0 -->
<g id="edge23" class="edge">
<title>0x5ac53ed5ecf0&#45;&gt;0x5ac53ed5eca0</title>
<path fill="none" stroke="black" d="M375.02,-364.81C374.79,-356.79 374.52,-347.05 374.26,-338.07"/>
<polygon fill="black" stroke="black" points="377.76,-337.93 373.98,-328.03 370.76,-338.12 377.76,-337.93"/>
</g>
<!-- 0x5ac53ed5ecd0 -->
<g id="node29" class="node">
<title>0x5ac53ed5ecd0</title>
<polygon fill="none" stroke="black" points="478,-328 419,-328 419,-292 478,-292 478,-328"/>
<text text-anchor="middle" x="448.5" y="-306.3" font-family="Times,serif" font-size="14.00">Num: 1</text>
</g>
<!-- 0x5ac53ed5ecf0&#45;&gt;0x5ac53ed5ecd0 -->
<g id="edge24" class="edge">
<title>0x5ac53ed5ecf0&#45;&gt;0x5ac53ed5ecd0</title>
<path fill="none" stroke="black" d="M393.17,-364.81C402.32,-355.92 413.64,-344.91 423.65,-335.17"/>
<polygon fill="black" stroke="black" points="426.26,-337.51 430.99,-328.03 421.38,-332.49 426.26,-337.51"/>
</g>
<!-- 0x5ac53ed5ee20 -->
<g id="node31" class="node">
<title>0x5ac53ed5ee20</title>
<polygon fill="lightyellow" stroke="black" points="480.5,-474 426.5,-474 426.5,-438 480.5,-438 480.5,-474"/>
<text text-anchor="middle" x="453.5" y="-452.3" font-family="Times,serif" font-size="14.00">&#45;</text>
</g>
<!-- 0x5ac53ed5ee50&#45;&gt;0x5ac53ed5ee20 -->
<g id="edge30" class="edge">
<title>0x5ac53ed5ee50&#45;&gt;0x5ac53ed5ee20</title>
<path fill="none" stroke="black" d="M356.19,-524.8C374.71,-511.9 400.25,-494.1 420.52,-479.98"/>
<polygon fill="black" stroke="black" points="422.64,-482.76 428.85,-474.18 418.64,-477.02 422.64,-482.76"/>
</g>
<!-- 0x5ac53ed5edd0 -->
<g id="node32" class="node">
<title>0x5ac53ed5edd0</title>
<polygon fill="none" stroke="black" points="477.5,-401 423.5,-401 423.5,-365 477.5,-365 477.5,-401"/>
<text text-anchor="middle" x="450.5" y="-379.3" font-family="Times,serif" font-size="14.00">Var: i</text>
</g>
<!-- 0x5ac53ed5ee20&#45;&gt;0x5ac53ed5edd0 -->
<g id="edge28" class="edge">
<title>0x5ac53ed5ee20&#45;&gt;0x5ac53ed5edd0</title>
<path fill="none" stroke="black" d="M452.77,-437.81C452.43,-429.79 452.02,-420.05 451.64,-411.07"/>
<polygon fill="black" stroke="black" points="455.14,-410.87 451.22,-401.03 448.14,-411.17 455.14,-410.87"/>
</g>
<!-- 0x5ac53ed5ee00 -->
<g id="node33" class="node">
<title>0x5ac53ed5ee00</title>
<polygon fill="none" stroke="black" points="555,-401 496,-401 496,-365 555,-365 555,-401"/>
<text text-anchor="middle" x="525.5" y="-379.3" font-family="Times,serif" font-size="14.00">Num: 1</text>
</g>
<!-- 0x5ac53ed5ee20&#45;&gt;0x5ac53ed5ee00 -->
<g id="edge29" class="edge">
<title>0x5ac53ed5ee20&#45;&gt;0x5ac53ed5ee00</title>
<path fill="none" stroke="black" d="M470.93,-437.81C479.95,-428.92 491.11,-417.91 500.99,-408.17"/>
<polygon fill="black" stroke="black" points="503.57,-410.54 508.23,-401.03 498.65,-405.56 503.57,-410.54"/>
</g>
<!-- 0x5ac53ed5fb30 -->
<g id="node35" class="node">
<title>0x5ac53ed5fb30</title>
<polygon fill="none" stroke="black" points="436.5,-561 382.5,-561 382.5,-525 436.5,-525 436.5,-561"/>
<text text-anchor="middle" x="409.5" y="-539.3" font-family="Times,serif" font-size="14.00">Var: j</text>
</g>
<!-- 0x5ac53ed5e980&#45;&gt;0x5ac53ed5fb30 -->
<g id="edge33" class="edge">
<title>0x5ac53ed5e980&#45;&gt;0x5ac53ed5fb30</title>
<path fill="none" stroke="black" d="M375.2,-611.8C381.2,-599.93 389.3,-583.93 396.12,-570.45"/>
<polygon fill="black" stroke="black" points="399.42,-571.68 400.81,-561.18 393.17,-568.52 399.42,-571.68"/>
</g>
</g>
</svg>
